<?xml version="1.0" encoding="UTF-8"?> <svg xmlns="http://www.w3.org/2000/svg" height="512pt" viewBox="0 0 512 512" width="512pt"><path d="m503.464844 417.910156v34.132813c-.027344 9.414062-7.652344 17.039062-17.066406 17.066406-9.414063.027344-17.035157 7.652344-17.066407 17.066406h-17.066406c-9.414063.027344-17.039063 7.652344-17.066406 17.066407h-358.398438c-.027343-9.414063-7.652343-17.039063-17.066406-17.066407h-17.066406c-.03125-9.414062-7.652344-17.039062-17.066407-17.066406-9.414062-.027344-17.039062-7.652344-17.066406-17.066406v-34.132813c.027344-9.414062 7.652344-17.039062 17.066406-17.066406 9.414063-.03125 17.035157-7.65625 17.066407-17.070312h17.066406c9.414063-.027344 17.039063-7.652344 17.066406-17.066407h358.398438c.027343 9.414063 7.652343 17.039063 17.066406 17.066407h17.066406c.03125 9.414062 7.652344 17.039062 17.066407 17.070312 9.414062.027344 17.039062 7.652344 17.066406 17.066406zm0 0" fill="#a4c2f7"></path><path d="m477.867188 417.910156v34.132813c-.027344 9.414062-7.652344 17.039062-17.066407 17.066406-9.414062.027344-17.039062 7.652344-17.066406 17.066406h-17.066406c-9.414063.027344-17.039063 7.652344-17.066407 17.066407h-332.800781c-.027343-9.414063-7.652343-17.039063-17.066406-17.066407h-17.066406c-.03125-9.414062-7.652344-17.039062-17.066407-17.066406-9.414062-.027344-17.039062-7.652344-17.066406-17.066406v-34.132813c.027344-9.414062 7.652344-17.039062 17.066406-17.066406 9.414063-.03125 17.035157-7.65625 17.066407-17.070312h17.066406c9.414063-.027344 17.039063-7.652344 17.066406-17.066407h332.800781c.027344 9.414063 7.652344 17.039063 17.066407 17.066407h17.066406c.027344 9.414062 7.652344 17.039062 17.066406 17.070312 9.414063.027344 17.039063 7.652344 17.066407 17.066406zm0 0" fill="#e3e7f2"></path><path d="m426.667969 306.976562c0 34.132813-17.066407 59.730469-68.269531 59.730469h-204.796876c-51.203124 0-68.269531-25.597656-68.269531-59.730469 0-27.734374 16.898438-55.46875 55.296875-64.855468 9.835938-2.359375 19.921875-3.507813 30.039063-3.414063 0 0 0-84.222656 72.53125-93.097656 4.246093-.527344 8.523437-.78125 12.800781-.765625 85.332031 0 93.867188 93.863281 93.867188 93.863281 1.875 0 3.667968 0 5.460937.085938 55.296875 2.050781 71.339844 35.074219 71.339844 68.183593zm0 0" fill="#d4e1f4"></path><path d="m401.066406 306.976562c0 34.132813-17.066406 59.730469-68.265625 59.730469h-179.199219c-51.203124 0-68.269531-25.597656-68.269531-59.730469 0-27.734374 16.898438-55.46875 55.296875-64.855468 9.835938-2.359375 19.921875-3.507813 30.039063-3.414063 0 0 0-84.222656 72.53125-93.097656 73.386719 8.789063 81.066406 93.097656 81.066406 93.097656 8.394531-.0625 16.773437.738281 25.003906 2.390625 1.730469.324219 3.441407.753906 5.121094 1.28125 35.582031 9.554688 46.675781 37.035156 46.675781 64.597656zm0 0" fill="#e3e7f2"></path><path d="m256 279.820312s0 18.621094 25.601562 18.621094c25.597657 0 25.597657-18.621094 25.597657-27.929687 0-27.921875-51.199219-37.230469-51.199219-74.46875 0 37.238281-51.199219 46.546875-51.199219 74.46875 0 9.308593 0 27.929687 25.597657 27.929687 25.601562 0 25.601562-18.621094 25.601562-18.621094" fill="#a4c2f7"></path><path d="m273.066406 127.773438c0 9.425781-7.640625 17.070312-17.066406 17.070312s-17.066406-7.644531-17.066406-17.070312c0-9.425782 7.640625-17.066407 17.066406-17.066407s17.066406 7.640625 17.066406 17.066407zm0 0" fill="#e3e7f2"></path><path d="m384 221.640625c0 9.425781-7.640625 17.066406-17.066406 17.066406-9.425782 0-17.066406-7.640625-17.066406-17.066406s7.640624-17.066406 17.066406-17.066406c9.425781 0 17.066406 7.640625 17.066406 17.066406zm0 0" fill="#e3e7f2"></path><path d="m460.800781 306.976562c0 9.425782-7.640625 17.066407-17.066406 17.066407s-17.066406-7.640625-17.066406-17.066407c0-9.425781 7.640625-17.066406 17.066406-17.066406s17.066406 7.640625 17.066406 17.066406zm0 0" fill="#e3e7f2"></path><path d="m85.332031 306.976562c0 9.425782-7.640625 17.066407-17.066406 17.066407s-17.066406-7.640625-17.066406-17.066407c0-9.425781 7.640625-17.066406 17.066406-17.066406s17.066406 7.640625 17.066406 17.066406zm0 0" fill="#e3e7f2"></path><path d="m170.667969 221.640625c0 9.425781-7.640625 17.066406-17.066407 17.066406-9.425781 0-17.066406-7.640625-17.066406-17.066406s7.640625-17.066406 17.066406-17.066406c9.425782 0 17.066407 7.640625 17.066407 17.066406zm0 0" fill="#e3e7f2"></path><path d="m256 8.308594 12.261719 17.492187 21.871093 5.324219-14.292968 16.136719 1.253906 20.78125-21.09375-7.519531-21.09375 7.519531 1.253906-20.78125-14.292968-16.136719 21.871093-5.324219zm0 0" fill="#e3e7f2"></path><path d="m375.464844 76.574219 12.265625 17.496093 21.871093 5.324219-14.292968 16.136719 1.253906 20.777344-21.097656-7.519532-21.09375 7.519532 1.253906-20.777344-14.292969-16.136719 21.871094-5.324219zm0 0" fill="#e3e7f2"></path><path d="m145.066406 76.574219-12.261718 17.496093-21.871094 5.324219 14.292968 16.136719-1.253906 20.777344 21.09375-7.519532 21.09375 7.519532-1.253906-20.777344 14.292969-16.136719-21.871094-5.324219zm0 0" fill="#e3e7f2"></path><path d="m25.601562 469.109375c9.414063.027344 17.035157 7.652344 17.066407 17.066406h17.066406c9.414063.027344 17.039063 7.652344 17.066406 17.066407h25.597657c-.027344-9.414063-7.652344-17.039063-17.066407-17.066407h-17.066406c-.027344-9.414062-7.652344-17.039062-17.066406-17.066406-9.414063-.027344-17.039063-7.652344-17.066407-17.066406v-34.132813c.027344-9.414062 7.652344-17.039062 17.066407-17.066406 9.414062-.03125 17.039062-7.65625 17.066406-17.070312h17.066406c9.414063-.027344 17.039063-7.652344 17.066407-17.066407h-25.597657c-.027343 9.414063-7.652343 17.039063-17.066406 17.066407h-17.066406c-.03125 9.414062-7.652344 17.039062-17.066407 17.070312-9.414062.027344-17.039062 7.652344-17.066406 17.066406v34.132813c.027344 9.414062 7.652344 17.039062 17.066406 17.066406zm0 0" fill="#fff"></path><path d="m456.535156 318.152344c-2.738281-3.082032-4.253906-7.054688-4.269531-11.175782.011719 5.183594-.460937 10.363282-1.40625 15.460938 2.171875-1.011719 4.105469-2.472656 5.675781-4.285156zm0 0" fill="#fff"></path><path d="m396.5625 136.308594-.351562-5.792969-7.945313 2.832031zm0 0" fill="#fff"></path><path d="m450.933594 291.554688c.886718 5.09375 1.332031 10.253906 1.332031 15.421874.015625-4.121093 1.53125-8.097656 4.269531-11.179687-1.550781-1.789063-3.457031-3.234375-5.601562-4.242187zm0 0" fill="#fff"></path><path d="m51.199219 306.976562c-.03125 7.113282 4.375 13.496094 11.039062 15.992188 6.664063 2.492188 14.179688.570312 18.828125-4.816406-5.6875-6.363282-5.6875-15.988282 0-22.355469-4.648437-5.386719-12.164062-7.308594-18.828125-4.8125-6.664062 2.492187-11.070312 8.875-11.039062 15.992187zm0 0" fill="#fff"></path><path d="m93.867188 324.042969c-2.464844-.011719-4.894532-.558594-7.125-1.605469 4.90625 26.105469 23.765624 44.269531 66.859374 44.269531h25.597657c-51.199219 0-68.265625-25.597656-68.265625-59.730469 0 9.425782-7.640625 17.066407-17.066406 17.066407zm0 0" fill="#fff"></path><path d="m76.800781 494.707031h179.199219v17.066407h-179.199219zm0 0" fill="#fff"></path><g fill="#428dff"><path d="m139.007812 497.183594-1.023437 1.28125c-.324219.472656-.582031.992187-.769531 1.535156-.246094.484375-.417969 1-.511719 1.535156-.09375.566406-.152344 1.132813-.167969 1.707032.03125 2.257812.914063 4.421874 2.472656 6.058593.816407.769531 1.773438 1.378907 2.816407 1.792969 3.183593 1.285156 6.824219.585938 9.300781-1.792969.773438-.816406 1.378906-1.773437 1.792969-2.816406.4375-1.027344.667969-2.128906.683593-3.242187.019532-3.46875-2.0625-6.601563-5.261718-7.929688-3.203125-1.332031-6.890625-.589844-9.332032 1.871094zm0 0"></path><path d="m486.398438 392.308594c-4.710938 0-8.53125-3.820313-8.53125-8.535156 0-4.710938-3.820313-8.53125-8.535157-8.53125h-17.066406c-4.710937 0-8.53125-3.820313-8.53125-8.535157 0-4.710937-3.820313-8.53125-8.535156-8.53125h-20c8.4375-7.527343 14.421875-17.414062 17.167969-28.382812 3.519531 1.804687 7.410156 2.757812 11.367187 2.78125 14.136719 0 25.597656-11.460938 25.597656-25.597657 0-14.140624-11.460937-25.601562-25.597656-25.601562-3.953125.027344-7.839844.976562-11.359375 2.773438-5.179688-22.757813-22.011719-41.082032-44.253906-48.160157 7.347656-10.816406 5.351562-25.429687-4.628906-33.875-9.980469-8.445312-24.722657-7.996093-34.171876 1.035157-9.8125-25.027344-29.933593-55.746094-70.28125-64.367188 1.671876-3.429688 2.546876-7.191406 2.5625-11.007812 0-14.136719-11.464843-25.597657-25.601562-25.597657s-25.601562 11.460938-25.601562 25.597657c.019531 3.804687.894531 7.554687 2.5625 10.976562-31.253907 7.339844-56.003907 31.15625-64.539063 62.105469-4.3125-3.121094-9.5-4.804688-14.820313-4.8125-9.40625-.023438-18.0625 5.125-22.53125 13.394531-4.472656 8.273438-4.035156 18.335938 1.136719 26.191406-24.386719 6.59375-43.851562 24.953125-51.867187 48.914063-3.695313-2.050781-7.847656-3.136719-12.074219-3.167969-14.136719 0-25.597656 11.460938-25.597656 25.601562 0 14.136719 11.460937 25.597657 25.597656 25.597657 3.957031-.023438 7.847656-.976563 11.367187-2.78125 2.746094 10.96875 8.730469 20.855469 17.167969 28.382812h-20c-4.714843 0-8.535156 3.820313-8.535156 8.53125 0 4.714844-3.820313 8.535157-8.53125 8.535157h-17.066406c-4.714844 0-8.535157 3.820312-8.535157 8.53125 0 4.714843-3.820312 8.535156-8.53125 8.535156-14.140624 0-25.601562 11.460937-25.601562 25.601562v34.132813c0 14.136719 11.460938 25.597656 25.601562 25.597656 4.710938 0 8.53125 3.820313 8.53125 8.535156 0 4.710938 3.820313 8.53125 8.535157 8.53125h17.066406c4.710937 0 8.53125 3.820313 8.53125 8.535157 0 4.710937 3.820313 8.53125 8.535156 8.53125h34.132813c4.710937 0 8.53125-3.820313 8.53125-8.53125 0-4.714844-3.820313-8.535157-8.53125-8.535157h-27.171875c-3.601563-10.191406-13.21875-17.019531-24.027344-17.066406h-9.992187c-3.632813-10.21875-13.296876-17.050781-24.140626-17.066406-4.714843 0-8.535156-3.820313-8.535156-8.53125v-34.132813c0-4.714844 3.820313-8.535156 8.535156-8.535156 10.84375-.011719 20.507813-6.847656 24.140626-17.066406h9.992187c10.84375-.011719 20.511719-6.847656 24.140625-17.066406h344.25c3.628906 10.21875 13.296875 17.054687 24.140625 17.066406h9.992187c3.632813 10.21875 13.296876 17.054687 24.140626 17.066406 4.714843 0 8.535156 3.820312 8.535156 8.535156v34.132813c0 4.710937-3.820313 8.53125-8.535156 8.53125-10.84375.015625-20.507813 6.847656-24.140626 17.066406h-9.992187c-10.84375.015625-20.511719 6.847656-24.140625 17.066406h-248.925781c-4.710938 0-8.53125 3.820313-8.53125 8.535157 0 4.710937 3.820312 8.53125 8.53125 8.53125h256c4.714843 0 8.535156-3.820313 8.535156-8.53125 0-4.714844 3.820313-8.535157 8.53125-8.535157h17.066406c4.714844 0 8.535157-3.820312 8.535157-8.53125 0-4.714843 3.820312-8.535156 8.53125-8.535156 14.140624 0 25.601562-11.460937 25.601562-25.597656v-34.132813c0-14.140625-11.460938-25.601562-25.601562-25.601562zm-42.664063-93.867188c4.710937 0 8.53125 3.820313 8.53125 8.535156 0 4.710938-3.820313 8.53125-8.53125 8.53125-4.714844 0-8.535156-3.820312-8.535156-8.53125 0-4.714843 3.820312-8.535156 8.535156-8.535156zm-76.800781-85.332031c4.710937 0 8.53125 3.820313 8.53125 8.53125 0 4.714844-3.820313 8.535156-8.53125 8.535156-4.714844 0-8.535156-3.820312-8.535156-8.535156 0-4.710937 3.820312-8.53125 8.535156-8.53125zm-119.46875-85.335937c0-4.710938 3.824218-8.53125 8.535156-8.53125s8.535156 3.820312 8.535156 8.53125c0 4.714843-3.824218 8.535156-8.535156 8.535156s-8.535156-3.820313-8.535156-8.535156zm-93.863282 85.335937c4.710938 0 8.53125 3.820313 8.53125 8.53125 0 4.714844-3.820312 8.535156-8.53125 8.535156-4.714843 0-8.535156-3.820312-8.535156-8.535156 0-4.710937 3.820313-8.53125 8.535156-8.53125zm-85.335937 102.398437c-4.710937 0-8.53125-3.820312-8.53125-8.53125 0-4.714843 3.820313-8.535156 8.53125-8.535156 4.714844 0 8.535156 3.820313 8.535156 8.535156 0 4.710938-3.820312 8.53125-8.535156 8.53125zm85.335937 42.667969c-40.757812 0-59.734374-16.265625-59.734374-51.199219 0-27.554687 20.113281-59.734374 76.800781-59.734374 4.710937 0 8.53125-3.820313 8.53125-8.535157 0-3.480469.855469-85.332031 76.800781-85.332031 76.390625 0 85.035156 82.601562 85.332031 86.117188.40625 4.40625 4.113281 7.769531 8.535157 7.75 56.421874 0 68.265624 32.484374 68.265624 59.734374 0 34.933594-18.976562 51.199219-59.734374 51.199219zm0 0"></path><path d="m142.507812 268.15625c-20.0625 6.316406-31.574218 20.480469-31.574218 38.820312 0 4.710938 3.820312 8.53125 8.53125 8.53125 4.714844 0 8.535156-3.820312 8.535156-8.53125 0-10.855468 6.605469-18.441406 19.625-22.539062 2.910156-.914062 5.109375-3.308594 5.773438-6.285156.660156-2.976563-.316407-6.082032-2.5625-8.140625-2.246094-2.0625-5.421876-2.769531-8.328126-1.855469zm0 0"></path><path d="m401.066406 306.976562c0-4.714843-3.820312-8.535156-8.53125-8.535156-4.714844 0-8.535156 3.820313-8.535156 8.535156 0 11.714844 0 17.066407-25.601562 17.066407h-8.53125c-4.714844 0-8.535157 3.820312-8.535157 8.53125 0 4.714843 3.820313 8.535156 8.535157 8.535156h8.53125c39.375 0 42.667968-16.863281 42.667968-34.132813zm0 0"></path><path d="m289.730469 232.375c-12.960938-10.511719-25.195313-20.445312-25.195313-36.332031 0-4.714844-3.824218-8.535157-8.535156-8.535157s-8.535156 3.820313-8.535156 8.535157c0 15.886719-12.234375 25.820312-25.195313 36.332031-12.785156 10.386719-26.003906 21.113281-26.003906 38.144531 0 24.191407 11.488281 36.457031 34.132813 36.457031 3.890624-.003906 7.761718-.484374 11.53125-1.433593-4.664063 8.890625-12.601563 15.625-22.136719 18.773437-4.539063 1.171875-7.285157 5.785156-6.144531 10.335938 1.140624 4.546875 5.734374 7.324218 10.292968 6.21875 13.578125-4.027344 25.070313-13.160156 32.058594-25.480469 6.992188 12.3125 18.484375 21.4375 32.058594 25.460937.679687.167969 1.375.253907 2.074218.257813 4.308594-.003906 7.9375-3.21875 8.460938-7.492187.523438-4.277344-2.21875-8.273438-6.394531-9.320313-9.519531-3.164063-17.445313-9.890625-22.109375-18.773437 3.761718.953124 7.628906 1.441406 11.511718 1.453124 22.644532 0 34.132813-12.265624 34.132813-36.457031 0-17.03125-13.21875-27.757812-26.003906-38.144531zm-8.128907 57.535156c-15.363281 0-16.949218-7.800781-17.066406-10.242187 0-4.710938-3.824218-8.53125-8.535156-8.53125s-8.535156 3.820312-8.535156 8.53125c-.117188 2.433593-1.703125 10.242187-17.066406 10.242187-15.878907 0-17.066407-7.679687-17.066407-19.390625 0-8.898437 9.125-16.316406 19.695313-24.882812 8.710937-6.445313 16.445312-14.109375 22.972656-22.757813 6.527344 8.648438 14.261719 16.3125 22.972656 22.757813 10.570313 8.535156 19.695313 15.984375 19.695313 24.882812 0 11.710938-1.1875 19.390625-17.066407 19.390625zm0 0"></path><path d="m153.601562 426.441406c0-18.851562-15.285156-34.132812-34.136718-34.132812-18.847656 0-34.132813 15.28125-34.132813 34.132812v17.066406c0 18.851563 15.285157 34.132813 34.132813 34.132813 18.851562 0 34.136718-15.28125 34.136718-34.132813zm-17.066406 17.066406c0 9.425782-7.644531 17.066407-17.070312 17.066407-9.425782 0-17.066406-7.640625-17.066406-17.066407v-17.066406c0-9.425781 7.640624-17.066406 17.066406-17.066406 9.425781 0 17.070312 7.640625 17.070312 17.066406zm0 0"></path><path d="m187.734375 469.109375v-17.066406h21.332031c16.496094 0 29.867188-13.371094 29.867188-29.867188 0-16.496093-13.371094-29.867187-29.867188-29.867187h-29.867187c-4.710938 0-8.53125 3.820312-8.53125 8.535156v68.265625c0 4.710937 3.820312 8.53125 8.53125 8.53125 4.714843 0 8.535156-3.820313 8.535156-8.53125zm34.132813-46.933594c0 7.070313-5.730469 12.800781-12.800782 12.800781h-21.332031v-25.601562h21.332031c7.070313 0 12.800782 5.730469 12.800782 12.800781zm0 0"></path><path d="m315.734375 409.375c4.710937 0 8.53125-3.820312 8.53125-8.53125 0-4.714844-3.820313-8.535156-8.53125-8.535156h-51.199219c-4.714844 0-8.535156 3.820312-8.535156 8.535156v68.265625c0 4.710937 3.820312 8.53125 8.535156 8.53125h51.199219c4.710937 0 8.53125-3.820313 8.53125-8.53125 0-4.714844-3.820313-8.535156-8.53125-8.535156h-42.667969v-17.066407h17.066406c4.714844 0 8.535157-3.820312 8.535157-8.53125 0-4.714843-3.820313-8.535156-8.535157-8.535156h-17.066406v-17.066406zm0 0"></path><path d="m366.933594 469.109375v-42.667969l35.839844 47.789063c1.613281 2.148437 4.140624 3.410156 6.828124 3.410156 4.710938 0 8.53125-3.820313 8.53125-8.53125v-68.265625c0-4.714844-3.820312-8.535156-8.53125-8.535156-4.714843 0-8.535156 3.820312-8.535156 8.535156v42.664062l-35.839844-47.785156c-2.203124-2.9375-6.039062-4.136718-9.523437-2.976562s-5.835937 4.421875-5.835937 8.097656v68.265625c0 4.710937 3.820312 8.53125 8.53125 8.53125 4.714843 0 8.535156-3.820313 8.535156-8.53125zm0 0"></path><path d="m298.273438 28.574219c-.894532-2.855469-3.21875-5.035157-6.125-5.742188l-18.773438-4.566406-10.386719-14.855469c-1.679687-2.152344-4.257812-3.410156-6.988281-3.410156s-5.308594 1.257812-6.988281 3.410156l-10.417969 14.855469-18.773438 4.566406c-2.910156.707031-5.238281 2.882813-6.132812 5.738281-.898438 2.855469-.230469 5.972657 1.753906 8.214844l11.945313 13.492188-.996094 17.242187c-.167969 2.859375 1.109375 5.609375 3.398437 7.324219 2.289063 1.71875 5.289063 2.171875 7.984376 1.210938l18.226562-6.476563 18.226562 6.492187c2.695313.960938 5.695313.507813 7.984376-1.207031 2.289062-1.71875 3.566406-4.46875 3.398437-7.324219l-1.039063-17.246093 11.945313-13.492188c1.992187-2.242187 2.660156-5.363281 1.757813-8.226562zm-28.816407 13.015625c-1.503906 1.691406-2.269531 3.914062-2.132812 6.175781l.476562 7.894531-8.933593-3.183594c-1.851563-.671874-3.882813-.671874-5.734376 0l-8.933593 3.183594.476562-7.894531c.136719-2.261719-.628906-4.484375-2.132812-6.175781l-4.898438-5.53125 8.105469-1.980469c2.019531-.492187 3.789062-1.707031 4.976562-3.414063l5.273438-7.492187 5.273438 7.527344c1.1875 1.707031 2.957031 2.921875 4.976562 3.414062l8.105469 1.980469zm0 0"></path><path d="m417.742188 96.84375c-.894532-2.859375-3.21875-5.039062-6.128907-5.746094l-18.773437-4.5625-10.382813-14.859375c-1.683593-2.152343-4.261719-3.410156-6.992187-3.410156-2.730469 0-5.308594 1.257813-6.988282 3.410156l-10.417968 14.859375-18.773438 4.5625c-2.910156.707032-5.234375 2.882813-6.132812 5.738282-.894532 2.859374-.230469 5.972656 1.753906 8.214843l11.949219 13.492188-1.042969 17.246093c-.164062 2.855469 1.113281 5.605469 3.402344 7.320313 2.289062 1.71875 5.285156 2.171875 7.980468 1.210937l18.269532-6.476562 18.230468 6.496094c2.695313.960937 5.691407.503906 7.980469-1.210938 2.289063-1.71875 3.566407-4.46875 3.402344-7.324218l-1.042969-17.246094 11.949219-13.492188c1.988281-2.242187 2.65625-5.363281 1.757813-8.222656zm-28.820313 13.011719c-1.5 1.695312-2.269531 3.917969-2.132813 6.179687l.480469 7.890625-8.9375-3.183593c-1.851562-.667969-3.878906-.667969-5.734375 0l-8.933594 3.183593.480469-7.890625c.136719-2.261718-.632812-4.484375-2.136719-6.179687l-4.894531-5.53125 8.105469-1.976563c2.019531-.496094 3.785156-1.710937 4.972656-3.414062l5.273438-7.492188 5.277344 7.523438c1.183593 1.707031 2.953124 2.921875 4.972656 3.414062l8.105468 1.980469zm0 0"></path><path d="m187.339844 96.84375c-.894532-2.859375-3.21875-5.039062-6.125-5.746094l-18.773438-4.5625-10.386718-14.859375c-1.679688-2.152343-4.257813-3.410156-6.988282-3.410156-2.730468 0-5.308594 1.257813-6.988281 3.410156l-10.417969 14.859375-18.773437 4.5625c-2.910157.707032-5.238281 2.882813-6.132813 5.738282-.898437 2.859374-.230468 5.972656 1.753906 8.214843l11.945313 13.492188-1.039063 17.246093c-.167968 2.855469 1.109376 5.605469 3.398438 7.320313 2.292969 1.71875 5.289062 2.171875 7.984375 1.210937l18.269531-6.476562 18.226563 6.496094c2.695312.960937 5.695312.503906 7.984375-1.210938 2.289062-1.71875 3.566406-4.46875 3.398437-7.324218l-1.039062-17.246094 11.945312-13.492188c1.992188-2.242187 2.660157-5.363281 1.757813-8.222656zm-28.816406 13.011719c-1.503907 1.695312-2.269532 3.917969-2.132813 6.179687l.476563 7.890625-8.933594-3.183593c-1.851563-.667969-3.882813-.667969-5.734375 0l-8.933594 3.183593.476563-7.890625c.136718-2.261718-.628907-4.484375-2.132813-6.179687l-4.898437-5.53125 8.105468-1.976563c2.019532-.496094 3.789063-1.710937 4.976563-3.414062l5.273437-7.492188 5.273438 7.523438c1.1875 1.707031 2.957031 2.921875 4.976562 3.414062l8.105469 1.980469zm0 0"></path></g></svg> 