<svg height="512pt" viewBox="0 0 512 512" width="512pt" xmlns="http://www.w3.org/2000/svg"><path d="m357.800781 130.046875-24.148437 24.234375h-.085938c-17.609375-13.535156-38.476562-22.191406-60.5-25.085938v-34.132812c8.648438.855469 17.210938 2.425781 25.601563 4.691406h.085937l2.558594.769532c.683594.167968 1.363281.425781 1.960938.597656 1.539062.511718 2.988281 1.023437 4.4375 1.449218 4.4375 1.535157 8.789062 3.242188 13.058593 5.035157 1.109375.511719 2.300781 1.023437 3.410157 1.535156.429687.171875.769531.34375 1.109374.511719v.085937c.769532.257813 1.367188.597657 2.050782.855469l.085937.082031c.402344.082031.78125.257813 1.109375.511719 1.109375.515625 2.21875 1.109375 3.242188 1.707031 1.707031.855469 3.328125 1.707031 4.949218 2.648438.316407.105469.609376.277343.851563.511719 1.109375.597656 2.21875 1.277343 3.328125 1.960937l.769531.511719c.574219.28125 1.121094.625 1.621094 1.023437.316406.105469.609375.28125.851563.511719.257812.171875.597656.34375.855468.511719.117188.140625.261719.257812.425782.34375.171874.171875.425781.253906.597656.425781.085937 0 .085937 0 .171875.085938.234375.199218.492187.371093.765625.511718l.171875.171875c.222656.058594.429687.175781.597656.339844.054687.058594.113281.113281.167969.171875.449218.253906.875.539062 1.28125.851562.683594.425782 1.367187.941407 2.046875 1.453126.449219.28125.875.597656 1.28125.9375l.085937.085937c.503906.339844.988282.710937 1.449219 1.109375h.085937c.277344.171875.535157.371094.769532.597656.277344.203125.53125.429688.765625.679688.503906.34375.988281.714844 1.453125 1.109375h.085937c.175781.222656.375.421875.59375.597656zm0 0" fill="#e3e7f2"/><path d="m238.933594 94.804688v34.390624c-21.828125 2.855469-42.535156 11.355469-60.074219 24.660157l-24.660156-23.808594c.765625-.679687 1.621093-1.363281 2.472656-2.046875s1.878906-1.535156 2.816406-2.21875c.269531-.21875.554688-.417969.851563-.597656 1.707031-1.28125 3.5-2.558594 5.378906-3.753906.320312-.257813.664062-.484376 1.023438-.683594 0-.085938 0-.085938.085937-.085938 1.027344-.761718 2.109375-1.445312 3.242187-2.046875 1.730469-1.179687 3.523438-2.261719 5.375-3.242187 1.070313-.695313 2.179688-1.320313 3.328126-1.878906 2.21875-1.195313 4.4375-2.304688 6.742187-3.496094.085937 0 .085937 0 .167969-.085938 2.136718-1.023437 4.355468-1.964844 6.574218-2.988281.082032 0 .082032-.085937.167969-.085937.085938 0 .34375-.082032.511719-.167969.34375-.171875.683594-.257813 1.023438-.429688 1.28125-.511719 2.648437-1.109375 4.011718-1.621093.589844-.175782 1.160156-.402344 1.707032-.679688.171874 0 .257812-.085938.339843-.085938.640625-.265624 1.296875-.496093 1.964844-.683593.425781-.171875.769531-.257813 1.195313-.425781 1.253906-.503907 2.535156-.929688 3.839843-1.28125l.765625-.253907c2.21875-.683593 4.523438-1.367187 6.742188-1.964843.425781-.085938.855468-.171876 1.195312-.253907 2.21875-.597656 4.351563-1.109375 6.570313-1.539062l1.195312-.253907c2.046875-.425781 4.265625-.855468 6.398438-1.195312h.171875c.171875 0 .257812-.085938.425781-.085938.261719.015626.519531-.015624.769531-.085937.9375-.167969 1.875-.253906 2.902344-.425781.757812-.15625 1.527344-.269532 2.300781-.339844h.171875c.394532-.09375.792969-.152344 1.195313-.171875.371093.015625.742187-.015625 1.109375-.085937zm0 0" fill="#e3e7f2"/><path d="m178.859375 153.855469c-9.425781 7.164062-17.839844 15.578125-25.003906 25.003906l-23.808594-24.660156c.429687-.597657.855469-1.195313 1.367187-1.792969 2.132813-2.5625 4.351563-5.035156 6.570313-7.425781 2.21875-2.386719 4.351563-4.4375 6.65625-6.65625l.253906-.253907h.085938c0-.171874 0-.171874.085937-.171874.503906-.578126 1.078125-1.09375 1.707032-1.535157.511718-.511719 1.109374-1.023437 1.621093-1.453125.171875-.167968.257813-.339844.425781-.425781.820313-.835937 1.707032-1.605469 2.644532-2.304687l1.707031-1.449219c.324219-.257813.664063-.484375 1.027344-.683594zm0 0" fill="#d4e1f4"/><path d="m153.855469 178.859375c-13.269531 17.558594-21.765625 38.253906-24.660157 60.074219h-34.390624c2.546874-25.097656 11.027343-49.230469 24.746093-70.398438h.085938c1.792969-2.816406 3.671875-5.546875 5.632812-8.277344 1.535157-2.050781 3.070313-4.097656 4.777344-6.058593zm0 0" fill="#e3e7f2"/><path d="m154.28125 333.566406-24.320312 24.320313c-19.71875-24.25-31.9375-53.726563-35.15625-84.820313h34.390624c2.910157 22.019532 11.5625 42.882813 25.085938 60.5zm0 0" fill="#e3e7f2"/><path d="m178.433594 357.71875-24.320313 24.320312c-8.882812-7.175781-16.976562-15.269531-24.152343-24.152343l24.320312-24.320313c6.878906 9.140625 15.011719 17.273438 24.152344 24.152344zm0 0" fill="#d4e1f4"/><path d="m238.933594 382.804688v34.390624c-31.089844-3.234374-60.5625-15.449218-84.820313-35.15625l24.320313-24.320312c17.597656 13.554688 38.472656 22.210938 60.5 25.085938zm0 0" fill="#e3e7f2"/><path d="m273.066406 382.804688v34.390624c-11.34375 1.25-22.789062 1.25-34.132812 0v-34.390624c5.257812.746093 10.5625 1.144531 15.871094 1.195312h1.195312c5.710938-.007812 11.410156-.40625 17.066406-1.195312zm0 0" fill="#d4e1f4"/><path d="m357.886719 382.039062c-24.25 19.71875-53.726563 31.9375-84.820313 35.15625v-34.390624c22.023438-2.894532 42.890625-11.550782 60.5-25.085938zm0 0" fill="#e3e7f2"/><path d="m382.039062 357.886719c-7.175781 8.882812-15.269531 16.976562-24.152343 24.152343l-24.320313-24.320312c9.121094-6.902344 17.25-15.03125 24.152344-24.152344zm0 0" fill="#a4c2f7"/><path d="m417.195312 273.066406c-.085937.511719-.085937 1.023438-.171874 1.535156-3.441407 30.542969-15.585938 59.449219-34.984376 83.285157l-24.320312-24.320313c13.535156-17.609375 22.191406-38.476562 25.085938-60.5zm0 0" fill="#d4e1f4"/><path d="m418.132812 256c-.007812 5.703125-.324218 11.398438-.9375 17.066406h-34.390624c1.59375-11.320312 1.59375-22.8125 0-34.132812h34.390624c.070313.160156.097657.335937.085938.511718.253906 2.046876.425781 4.097657.511719 6.230469.253906 3.414063.339843 6.824219.339843 10.324219zm0 0" fill="#a4c2f7"/><path d="m93.867188 256c.007812 5.703125.324218 11.398438.9375 17.066406h34.390624c-1.59375-11.320312-1.59375-22.8125 0-34.132812h-34.390624c-.070313.160156-.097657.335937-.085938.511718-.253906 2.046876-.425781 4.097657-.511719 6.230469-.253906 3.414063-.339843 6.824219-.339843 10.324219zm0 0" fill="#d4e1f4"/><path d="m384 256c-.007812 5.710938-.40625 11.410156-1.195312 17.066406-2.894532 22.023438-11.550782 42.890625-25.085938 60.5-6.902344 9.121094-15.03125 17.25-24.152344 24.152344-17.609375 13.535156-38.476562 22.191406-60.5 25.085938-5.65625.789062-11.355468 1.1875-17.066406 1.195312h-1.195312c-5.308594-.050781-10.613282-.449219-15.871094-1.195312-22.027344-2.875-42.902344-11.53125-60.5-25.085938-9.140625-6.878906-17.273438-15.011719-24.152344-24.152344-13.523438-17.617187-22.175781-38.480468-25.085938-60.5-1.59375-11.320312-1.59375-22.8125 0-34.132812 2.894532-21.820313 11.390626-42.515625 24.660157-60.074219 7.164062-9.425781 15.578125-17.839844 25.003906-25.003906 17.539063-13.304688 38.246094-21.804688 60.074219-24.660157 5.65625-.789062 11.355468-1.1875 17.066406-1.195312h.851562c5.429688.007812 10.847657.40625 16.214844 1.195312 22.023438 2.894532 42.890625 11.550782 60.5 25.085938h.085938c9.117187 6.882812 17.214844 15.011719 24.066406 24.152344 13.535156 17.609375 22.191406 38.476562 25.085938 60.5.789062 5.65625 1.1875 11.355468 1.195312 17.066406zm0 0" fill="#e3e7f2"/><path d="m381.953125 154.199219v.082031l-24.234375 24.152344c-6.851562-9.140625-14.949219-17.269532-24.066406-24.152344l24.148437-24.234375c.175781.066406.328125.183594.429688.34375h.085937c.082032 0 .082032 0 .167969.167969l.085937.085937c.085938 0 .257813.171875.339844.257813.257813.167968.515625.425781.769532.597656l.425781.425781c.242187.148438.472656.320313.683593.511719.277344.203125.535157.429688.769532.683594.207031.085937.386718.234375.511718.425781.722657.546875 1.40625 1.148437 2.046876 1.792969.597656.597656 1.195312 1.109375 1.878906 1.707031.082031.082031.167968.082031.253906.253906l.085938.085938c.085937 0 .085937 0 .085937.085937.046875 0 .085937.039063.085937.085938l.085938.085937c.082031 0 .082031.082031.167969.167969.191406.117188.363281.261719.511719.425781.511718.429688 1.023437.941407 1.453124 1.367188.351563.269531.667969.585937.9375.9375.046876 0 .085938.039062.085938.085937.324219.242188.613281.527344.851562.855469.683594.59375 1.367188 1.363281 2.050782 2.046875l.339844.339844c.597656.597656 1.195312 1.28125 1.707031 1.878906.171875.085938.253906.171875.253906.253906l.941406 1.027344c.339844.425781.679688.765625 1.023438 1.191406.269531.183594.5.414063.683593.683594.339844.425781.765626.855469 1.109376 1.28125l.253906.253906c.171875.179688.3125.378906.425781.597656.261719.164063.46875.402344.597656.683594.242188.1875.445313.417969.597657.683594.308593.320312.59375.660156.855468 1.023438zm0 0" fill="#a4c2f7"/><path d="m273.066406 95.0625v34.132812c-5.367187-.789062-10.785156-1.1875-16.214844-1.195312h-.851562c-5.710938.007812-11.410156.40625-17.066406 1.195312v-34.390624h.085937c2.304688-.253907 4.605469-.425782 6.910157-.597657h.085937c.566406-.070312 1.136719-.097656 1.707031-.085937 1.707032-.167969 3.5-.167969 5.207032-.167969h1.191406v-.085937h1.878906c2.046875 0 4.097656.253906 6.144531.339843 3.667969.171875 7.339844.425781 10.921875.855469zm0 0" fill="#d4e1f4"/><path d="m417.195312 238.933594h-34.390624c-2.894532-22.023438-11.550782-42.890625-25.085938-60.5l24.234375-24.152344c.167969 0 .253906.171875.339844.257812l.257812.253907.082031.085937c.136719.125.25.269532.34375.429688l.765626 1.023437c.757812.820313 1.441406 1.707031 2.050781 2.644531.085937.171876.253906.339844.339843.511719.085938.171875.257813.253907.34375.425781l.511719.769532c.425781.597656.851563 1.109375 1.277344 1.707031.511719.765625 1.023437 1.449219 1.535156 2.21875.515625.765625 1.195313 1.789063 1.792969 2.644531.257812.511719.597656.9375.855469 1.363282.046875.046874.078125.105468.085937.171874.046875.042969.078125.105469.082032.171876l.171874.167968c.007813.066406.039063.125.085938.171875 1.28125 2.046875 2.558594 4.097657 3.753906 6.230469.9375 1.535156 1.792969 3.15625 2.644532 4.777344l.769531 1.535156c0 .085938.085937.085938.085937.171875.25.53125.535156 1.042969.851563 1.535156.175781.507813.40625.992188.683593 1.453125 0 .167969.085938.167969.171876.253906.339843.941407.765624 1.878907 1.195312 2.816407.144531.210937.261719.441406.339844.683593 2.132812 4.609376 4.011718 9.386719 5.71875 14.25h.082031c.34375.9375.597656 1.792969.941406 2.730469.246094.542969.417969 1.117188.511719 1.707031.085938.085938.085938.085938.085938.171876 0 .085937.082031.085937.082031.167968.597656 1.792969 1.109375 3.585938 1.539062 5.460938.597657 1.964844 1.109375 4.011718 1.535157 6.0625.425781 2.046875.851562 4.007812 1.28125 6.058594.0625.066406.09375.160156.082031.253906.085937.425781.171875.9375.257812 1.449218.15625.648438.269531 1.304688.339844 1.964844.085937.425782.171875.9375.257813 1.363282v.257812c.339843 2.304688.683593 4.691406.9375 6.996094.097656.421875.15625.851562.171874 1.28125zm0 0" fill="#d4e1f4"/><path d="m17.066406 8.535156h477.867188c4.710937 0 8.53125 3.820313 8.53125 8.53125v17.066406c0 4.714844-3.820313 8.535157-8.53125 8.535157h-477.867188c-4.710937 0-8.53125-3.820313-8.53125-8.535157v-17.066406c0-4.710937 3.820313-8.53125 8.53125-8.53125zm0 0" fill="#d4e1f4"/><path d="m17.066406 469.332031h477.867188c4.710937 0 8.53125 3.820313 8.53125 8.535157v17.066406c0 4.710937-3.820313 8.53125-8.53125 8.53125h-477.867188c-4.710937 0-8.53125-3.820313-8.53125-8.53125v-17.066406c0-4.714844 3.820313-8.535157 8.53125-8.535157zm0 0" fill="#d4e1f4"/><path d="m17.066406 8.535156h452.265625c4.714844 0 8.535157 3.820313 8.535157 8.53125v17.066406c0 4.714844-3.820313 8.535157-8.535157 8.535157h-452.265625c-4.710937 0-8.53125-3.820313-8.53125-8.535157v-17.066406c0-4.710937 3.820313-8.53125 8.53125-8.53125zm0 0" fill="#e3e7f2"/><path d="m17.066406 469.332031h452.265625c4.714844 0 8.535157 3.820313 8.535157 8.535157v17.066406c0 4.710937-3.820313 8.53125-8.535157 8.53125h-452.265625c-4.710937 0-8.53125-3.820313-8.53125-8.53125v-17.066406c0-4.714844 3.820313-8.535157 8.53125-8.535157zm0 0" fill="#e3e7f2"/><path d="m17.066406 503.464844h25.601563c-4.714844 0-8.535157-3.820313-8.535157-8.53125v-17.066406c0-4.714844 3.820313-8.535157 8.535157-8.535157h-25.601563c-4.710937 0-8.53125 3.820313-8.53125 8.535157v17.066406c0 4.710937 3.820313 8.53125 8.53125 8.53125zm0 0" fill="#fff"/><path d="m17.066406 42.667969h25.601563c-4.714844 0-8.535157-3.820313-8.535157-8.535157v-17.066406c0-4.710937 3.820313-8.53125 8.535157-8.53125h-25.601563c-4.710937 0-8.53125 3.820313-8.53125 8.53125v17.066406c0 4.714844 3.820313 8.535157 8.53125 8.535157zm0 0" fill="#fff"/><path d="m129.960938 357.886719c30.824218 38.003906 77.109374 60.128906 126.039062 60.246093 4.34375 0 8.535156-.238281 12.800781-.589843-1.425781-.117188-2.851562-.195313-4.265625-.347657-82.378906-8.894531-144.878906-78.339843-145.070312-161.195312 0-3.5.085937-6.910156.34375-10.324219.085937-2.132812.253906-4.183593.511718-6.230469-.015624-.175781.015626-.351562.085938-.511718 2.542969-25.097656 11.027344-49.230469 24.746094-70.398438h.085937c1.792969-2.816406 3.667969-5.546875 5.632813-8.277344 1.535156-2.050781 3.070312-4.097656 4.777344-6.058593.425781-.597657.851562-1.195313 1.363281-1.792969 2.136719-2.5625 4.355469-5.035156 6.574219-7.425781 2.214843-2.386719 4.351562-4.4375 6.652343-6.65625l.257813-.253907h.085937c0-.171874 0-.171874.085938-.171874.503906-.578126 1.078125-1.09375 1.707031-1.535157.511719-.511719 1.109375-1.023437 1.621094-1.453125.167968-.167968.253906-.339844.425781-.425781.820313-.835937 1.703125-1.605469 2.644531-2.304687l1.707032-1.449219c.320312-.257813.664062-.484375 1.023437-.683594.769531-.679687 1.621094-1.363281 2.476563-2.046875.851562-.683594 1.875-1.535156 2.816406-2.21875.269531-.21875.554687-.417969.851562-.597656 1.707032-1.28125 3.5-2.558594 5.375-3.753906.320313-.257813.664063-.484376 1.023438-.683594 0-.085938 0-.085938.085937-.085938 1.03125-.761718 2.113281-1.445312 3.242188-2.046875 1.730469-1.179687 3.527343-2.261719 5.378906-3.242187 1.066406-.695313 2.179687-1.320313 3.328125-1.878906 2.21875-1.195313 4.4375-2.304688 6.738281-3.496094.085938 0 .085938 0 .171875-.085938 2.132813-1.023437 4.351563-1.964844 6.570313-2.988281.085937 0 .085937-.085937.171875-.085937.085937 0 .339844-.082032.511718-.167969.339844-.171875.683594-.257813 1.023438-.429688 1.28125-.511719 2.644531-1.109375 4.011719-1.621093.585937-.175782 1.160156-.402344 1.707031-.679688.167969 0 .253906-.085938.339844-.085938.640625-.265624 1.296875-.496093 1.964844-.683593.425781-.171875.765624-.257813 1.191406-.425781 1.253906-.503907 2.535156-.929688 3.839844-1.28125l.769531-.253907c2.21875-.683593 4.523437-1.367187 6.742187-1.964843.425782-.085938.851563-.171876 1.195313-.253907 2.21875-.597656 4.351562-1.109375 6.570312-1.539062l1.195313-.253907c2.046875-.425781 4.265625-.855468 6.398437-1.195312h.171875c.167969 0 .253906-.085938.425782-.085938.257812.015626.519531-.015624.765624-.085937.941407-.167969 1.878907-.253906 2.902344-.425781.761719-.15625 1.53125-.269532 2.304688-.339844h.171875c.390625-.09375.789062-.152344 1.195312-.171875.371094.015625.742188-.015625 1.109375-.085937h.082032c.855468-.09375 1.640624-.136719 2.460937-.210938-1.65625-.121094-3.277344-.308594-4.933594-.386719-2.046875-.085937-4.097656-.339843-6.144531-.339843h-1.878906v.085937h-1.191406c-1.707032 0-3.5 0-5.207032.167969-.570312-.011719-1.140625.015625-1.707031.085937h-.085937c-2.304688.171875-4.605469.34375-6.910157.597657h-.085937c-.367188.070312-.738282.101562-1.109375.085937-.402344.019531-.800781.078125-1.195313.171875h-.171875c-.773437.070312-1.542969.183594-2.300781.339844-1.027344.171875-1.964844.257812-2.902344.425781-.25.070313-.507812.101563-.769531.085937-.167969 0-.253906.085938-.425781.085938h-.171875c-2.132813.339844-4.351563.769531-6.398438 1.195312l-1.195312.253907c-2.21875.429687-4.351563.941406-6.570313 1.539062-.339844.082031-.769531.167969-1.195312.253907-2.21875.597656-4.523438 1.28125-6.742188 1.964843l-.765625.253907c-1.304687.351562-2.585937.777343-3.839843 1.28125-.425782.167968-.769532.253906-1.195313.425781-.667969.1875-1.324219.417969-1.964844.683593-.082031 0-.167969.085938-.339843.085938-.546876.277344-1.117188.503906-1.707032.679688-1.363281.511718-2.730468 1.109374-4.011718 1.621093-.339844.171875-.679688.257813-1.023438.429688-.167969.085937-.339844.085937-.511719.167969-.167969.085937-.085937.085937-.167969.085937-2.21875 1.023437-4.4375 1.964844-6.574218 2.988281-.082032.085938-.082032.085938-.167969.085938-2.304687 1.191406-4.523437 2.300781-6.742187 3.496094-1.148438.558593-2.257813 1.183593-3.328126 1.878906-1.851562.980468-3.644531 2.0625-5.375 3.242187-1.132812.601563-2.214843 1.285157-3.242187 2.046875-.085937 0-.085937 0-.085937.085938-.359376.199218-.703126.425781-1.023438.683594-1.878906 1.195312-3.671875 2.472656-5.378906 3.753906-.296875.179687-.582032.378906-.851563.597656-.9375.683594-1.878906 1.449219-2.816406 2.21875s-1.707031 1.367188-2.472656 2.046875c-.363281.199219-.703125.425781-1.027344.683594l-1.707031 1.449219c-.9375.699218-1.824219 1.46875-2.644532 2.304687-.167968.085937-.253906.257813-.425781.425781-.511719.429688-1.109375.941406-1.621093 1.453125-.628907.441407-1.203126.957031-1.707032 1.535157-.085937 0-.085937 0-.085937.171874h-.085938l-.253906.253907c-2.304687 2.21875-4.4375 4.351562-6.65625 6.65625-2.21875 2.304687-4.4375 4.863281-6.570313 7.425781-.511718.597656-.9375 1.195312-1.367187 1.792969-1.707031 1.960937-3.242187 4.007812-4.777344 6.058593-1.960937 2.730469-3.839843 5.460938-5.632812 8.277344h-.085938c-13.71875 21.167969-22.199219 45.300782-24.746093 70.398438-.070313.160156-.097657.335937-.085938.511718-.253906 2.046876-.425781 4.097657-.511719 6.230469-.253906 3.414063-.339843 6.824219-.339843 10.324219.089843 37.078125 12.824218 73.019531 36.09375 101.886719zm0 0" fill="#fff"/><path d="m34.132812 460.800781v-418.132812h17.066407v418.132812zm0 0" fill="#fff"/><g fill="#428dff"><path d="m494.933594 0h-477.867188c-9.425781 0-17.066406 7.640625-17.066406 17.066406v17.066406c0 9.425782 7.640625 17.066407 17.066406 17.066407h17.066406v307.199219c0 4.714843 3.820313 8.535156 8.535157 8.535156 4.710937 0 8.53125-3.820313 8.53125-8.535156v-307.199219h25.601562v409.601562h-25.601562v-34.132812c0-4.714844-3.820313-8.535157-8.53125-8.535157-4.714844 0-8.535157 3.820313-8.535157 8.535157v34.132812h-17.066406c-9.425781 0-17.066406 7.640625-17.066406 17.066407v17.066406c0 9.425781 7.640625 17.066406 17.066406 17.066406h477.867188c9.425781 0 17.066406-7.640625 17.066406-17.066406v-17.066406c0-9.425782-7.640625-17.066407-17.066406-17.066407h-17.066406v-409.601562h17.066406c9.425781 0 17.066406-7.640625 17.066406-17.066407v-17.066406c0-9.425781-7.640625-17.066406-17.066406-17.066406zm-401.066406 51.199219h25.597656v89.011719c-10.261719 12.128906-18.871094 25.566406-25.597656 39.960937zm68.265624 0v51.199219c.050782.375.125.746093.222657 1.109374-9.167969 5.648438-17.8125 12.109376-25.820313 19.304688v-71.613281zm42.667969 0v33.144531c-8.777343 2.667969-17.335937 6.007812-25.601562 9.992188v-43.136719zm42.664063 0v26.035156c-8.589844.355469-17.148438 1.328125-25.597656 2.917969v-28.953125zm42.667968 0v28.953125c-8.449218-1.589844-17.007812-2.5625-25.597656-2.917969v-26.035156zm42.667969 0v43.136719c-8.265625-3.984376-16.824219-7.324219-25.601562-9.992188v-33.144531zm42.664063 0v71.613281c-8.007813-7.195312-16.652344-13.65625-25.820313-19.304688.097657-.363281.171875-.734374.222657-1.109374v-51.199219zm42.667968 0v128.972656c-6.726562-14.394531-15.335937-27.832031-25.597656-39.960937v-89.011719zm-68.265624 409.601562v-51.199219c-.050782-.375-.125-.746093-.222657-1.109374 9.167969-5.648438 17.8125-12.109376 25.820313-19.304688v71.613281zm-42.667969 0v-33.144531c8.777343-2.667969 17.335937-6.007812 25.601562-9.992188v43.136719zm-42.664063 0v-26.035156c8.589844-.355469 17.148438-1.328125 25.597656-2.917969v28.953125zm-42.667968 0v-28.953125c8.449218 1.589844 17.007812 2.5625 25.597656 2.917969v26.035156zm-42.667969 0v-43.136719c8.265625 3.984376 16.824219 7.324219 25.601562 9.992188v33.144531zm-42.664063 0v-71.613281c8.007813 7.195312 16.652344 13.65625 25.820313 19.304688-.097657.363281-.171875.734374-.222657 1.109374v51.199219zm93.863282-364.707031v17.238281c-20.546876 3.667969-40.054688 11.753907-57.171876 23.695313l-12.167968-12.175782c20.523437-14.914062 44.285156-24.769531 69.339844-28.757812zm120.542968 28.757812-12.167968 12.175782c-17.117188-11.941406-36.625-20.027344-57.171876-23.695313v-17.238281c25.054688 3.988281 48.816407 13.84375 69.339844 28.757812zm-69.339844 291.054688v-17.238281c20.546876-3.667969 40.054688-11.753907 57.171876-23.695313l12.167968 12.175782c-20.523437 14.914062-44.285156 24.769531-69.339844 28.757812zm-120.542968-28.757812 12.167968-12.175782c17.117188 11.941406 36.625 20.027344 57.171876 23.695313v17.238281c-25.054688-3.988281-48.816407-13.84375-69.339844-28.757812zm-25.378906-22.878907 12.058593-12.066406c3.785157 4.257813 7.816407 8.289063 12.074219 12.078125l-12.082031 12.039062c-4.222657-3.804687-8.246094-7.828124-12.050781-12.050781zm-41.8125-108.269531c0-2.882812.28125-5.691406.433593-8.535156h17.066407c-.167969 2.84375-.433594 5.652344-.433594 8.535156s.265625 5.691406.433594 8.535156h-17.066407c-.152343-2.84375-.433593-5.652344-.433593-8.535156zm162.132812-128c70.691406 0 128 57.308594 128 128s-57.308594 128-128 128-128-57.308594-128-128c.078125-70.660156 57.339844-127.921875 128-128zm162.132812 128c0 2.882812-.28125 5.691406-.433593 8.535156h-17.066407c.167969-2.84375.433594-5.652344.433594-8.535156s-.265625-5.691406-.433594-8.535156h17.066407c.152343 2.84375.433593 5.652344.433593 8.535156zm-162.132812 162.132812c-2.882812 0-5.691406-.28125-8.535156-.433593v-17.066407c2.84375.167969 5.652344.433594 8.535156.433594s5.691406-.265625 8.535156-.433594v17.066407c-2.84375.152343-5.652344.433593-8.535156.433593zm108.269531-41.8125-12.066406-12.058593c4.257813-3.785157 8.289063-7.816407 12.078125-12.074219l12.039062 12.082031c-3.804687 4.222657-7.828124 8.246094-12.050781 12.050781zm22.878907-25.394531-12.175782-12.152343c11.941406-17.117188 20.027344-36.625 23.695313-57.171876h17.238281c-3.988281 25.054688-13.84375 48.816407-28.757812 69.339844zm11.519531-120.527343c-3.667969-20.546876-11.753907-40.054688-23.695313-57.171876l12.175782-12.167968c14.914062 20.523437 24.769531 44.285156 28.757812 69.339844zm-22.347657-82.667969-12.058593 12.066406c-3.785157-4.257813-7.816407-8.289063-12.074219-12.078125l12.082031-12.039062c4.222657 3.804687 8.246094 7.828124 12.050781 12.050781zm-120.320312-53.863281c2.882812 0 5.691406.28125 8.535156.433593v17.066407c-2.84375-.167969-5.652344-.433594-8.535156-.433594s-5.691406.265625-8.535156.433594v-17.066407c2.84375-.152343 5.652344-.433593 8.535156-.433593zm-108.269531 41.8125 12.066406 12.058593c-4.257813 3.785157-8.289063 7.816407-12.078125 12.074219l-12.039062-12.082031c3.804687-4.222657 7.828124-8.246094 12.050781-12.050781zm-22.878907 25.394531 12.175782 12.152343c-11.941406 17.117188-20.027344 36.625-23.695313 57.171876h-17.238281c3.988281-25.054688 13.84375-48.816407 28.757812-69.339844zm-11.519531 120.527343c3.667969 20.546876 11.753907 40.054688 23.695313 57.171876l-12.175782 12.167968c-14.914062-20.523437-24.769531-44.285156-28.757812-69.339844zm279.203125 90.1875c10.261719-12.128906 18.871094-25.566406 25.597656-39.960937v128.972656h-25.597656zm-298.667968-39.960937c6.726562 14.394531 15.335937 27.832031 25.597656 39.960937v89.011719h-25.597656zm401.066406 146.039063v17.066406h-477.867188v-17.066406zm-34.132813-17.066407h-25.601562v-409.601562h25.601562zm-443.734375-426.667969v-17.066406h477.867188v17.066406zm0 0"/><path d="m39.425781 400.382812c.480469.246094 1 .421876 1.535157.511719.5625.097657 1.132812.152344 1.707031.171875 2.257812-.03125 4.421875-.917968 6.058593-2.472656.769532-.816406 1.378907-1.773438 1.789063-2.816406 1.289063-3.183594.585937-6.824219-1.789063-9.300782-.816406-.773437-1.773437-1.382812-2.816406-1.792968-1.027344-.4375-2.128906-.671875-3.242187-.683594-3.46875-.019531-6.601563 2.058594-7.933594 5.261719-1.328125 3.199219-.589844 6.890625 1.875 9.332031l1.277344 1.023438c.476562.320312.992187.582031 1.539062.765624zm0 0"/><path d="m213.332031 171.417969c1.226563.007812 2.441407-.25 3.558594-.75 12.265625-5.648438 25.609375-8.558594 39.109375-8.535157 4.710938 0 8.535156-3.820312 8.535156-8.53125 0-4.714843-3.824218-8.535156-8.535156-8.535156-15.957031-.039062-31.730469 3.394532-46.226562 10.0625-3.644532 1.671875-5.632813 5.65625-4.777344 9.578125.855468 3.917969 4.324218 6.710938 8.335937 6.710938zm0 0"/><path d="m170.667969 207.914062c2.859375.003907 5.53125-1.429687 7.117187-3.8125 2.496094-3.75 5.253906-7.320312 8.257813-10.675781 2.066406-2.265625 2.757812-5.46875 1.8125-8.386719-.945313-2.917968-3.386719-5.101562-6.390625-5.722656s-6.109375.421875-8.136719 2.726563c-3.550781 3.964843-6.8125 8.179687-9.761719 12.609375-1.742187 2.621094-1.902344 5.984375-.417968 8.757812 1.484374 2.773438 4.375 4.503906 7.519531 4.503906zm0 0"/><path d="m324.265625 340.855469c2.101563 0 4.128906-.773438 5.691406-2.175781 11.394531-10.164063 20.558594-22.574219 26.914063-36.453126 1.964844-4.292968.082031-9.363281-4.210938-11.328124-4.289062-1.964844-9.363281-.082032-11.328125 4.210937-5.382812 11.746094-13.140625 22.253906-22.78125 30.855469-2.640625 2.363281-3.546875 6.109375-2.277343 9.417968 1.269531 3.304688 4.453124 5.484376 7.992187 5.472657zm0 0"/><path d="m264.535156 196.265625c0-4.710937-3.824218-8.53125-8.535156-8.53125s-8.535156 3.820313-8.535156 8.53125v10.453125c-17.492188 3.320312-34.132813 16.429688-34.132813 34.1875 0 29.992188 24.902344 33.808594 41.378907 36.324219 19.515624 2.996093 26.890624 5.445312 26.890624 19.464843 0 6.375-11.1875 13.789063-25.601562 13.789063-10.394531-.445313-20.46875-3.742187-29.117188-9.53125-3.8125-2.769531-9.148437-1.925781-11.917968 1.886719-2.773438 3.8125-1.929688 9.148437 1.882812 11.921875 9.203125 6.21875 19.652344 10.355469 30.617188 12.117187v14.453125c0 4.714844 3.824218 8.535157 8.535156 8.535157s8.535156-3.820313 8.535156-8.535157v-14.402343c19.445313-2.867188 34.132813-15.359376 34.132813-30.234376 0-29.996093-24.902344-33.808593-41.378907-36.328124-19.515624-2.992188-26.890624-5.441407-26.890624-19.460938 0-9.960938 14.011718-17.972656 25.601562-17.972656 10.222656-1.097656 20.300781 3.082031 26.742188 11.09375 2.378906 3.980468 7.496093 5.332031 11.53125 3.050781 4.035156-2.285156 5.507812-7.371094 3.316406-11.457031-7.5625-11.042969-19.714844-18.070313-33.054688-19.113282zm0 0"/></g></svg>