<svg height="512pt" viewBox="-4 0 512 512.02907" width="512pt" xmlns="http://www.w3.org/2000/svg"><path d="m341.859375 479.742188c1.925781 5.699218.882813 11.980468-2.785156 16.746093s-9.476563 7.382813-15.476563 6.976563h-107.433594c-8.546874-.007813-16.132812-5.464844-18.859374-13.566406-4.070313-12.285157-15.558594-20.574219-28.5-20.566407h-17.410157c-1.910156.015625-3.820312-.097656-5.714843-.339843-5.53125-.75-10.816407-2.765626-15.445313-5.886719-3.433594-2.113281-6.121094-5.246094-7.679687-8.960938-1.277344-3.726562-1.03125-7.804687.679687-11.351562 2.183594-4.234375 1.921875-9.316407-.679687-13.308594l-4.609376-6.914063c-1.421874-2.148437-1.136718-5 .683594-6.828124l2.472656-2.472657-8.445312-8.535156c-1.710938-1.605469-2.128906-4.15625-1.027344-6.226563l3.839844-7.765624-13.566406-10.242188c-5.8125-4.253906-7.46875-12.210938-3.839844-18.429688 8.960938-14.082031 27.820312-27.476562 27.820312-36.183593 0-11.261719-6.402343-18.855469-6.402343-35.753907.828125-12.421874 5.113281-24.363281 12.375-34.472656 3.109375-5.082031 8.632812-8.183594 14.589843-8.195312h41.984376c1.28125 2.136718 22.957031 3.246094 47.359374 3.5h1.28125c31.914063.34375 67.925782-.851563 69.460938-3.5h43.007812c6.917969-.003906 13.171876 4.128906 15.871094 10.496094 7.15625 18.402343 10.578125 38.039062 10.070313 57.773437 0 49.320313-44.203125 75.007813-44.203125 114.429687 1.453125 16.902344 5.007812 33.558594 10.582031 49.578126zm0 0" fill="#a4c2f7"/><path d="m316.261719 479.742188c1.925781 5.699218.878906 11.980468-2.789063 16.746093-3.667968 4.765625-9.472656 7.382813-15.472656 6.976563h-81.835938c-8.546874-.007813-16.132812-5.464844-18.859374-13.566406-4.070313-12.285157-15.558594-20.574219-28.5-20.566407h-17.410157c-1.910156.015625-3.820312-.097656-5.714843-.339843-5.53125-.75-10.816407-2.765626-15.445313-5.886719-3.433594-2.113281-6.121094-5.246094-7.679687-8.960938-1.277344-3.726562-1.03125-7.804687.679687-11.351562 2.183594-4.234375 1.921875-9.316407-.679687-13.308594l-4.609376-6.914063c-1.421874-2.148437-1.136718-5 .683594-6.828124l2.472656-2.472657-8.445312-8.535156c-1.710938-1.605469-2.128906-4.15625-1.027344-6.226563l3.839844-7.765624-13.566406-10.242188c-5.8125-4.253906-7.46875-12.210938-3.839844-18.429688 8.960938-14.082031 27.820312-27.476562 27.820312-36.183593 0-11.261719-6.402343-18.855469-6.402343-35.753907.828125-12.421874 5.113281-24.363281 12.375-34.472656 3.109375-5.082031 8.632812-8.183594 14.589843-8.195312h16.386719c1.707031 2.902344 40.359375 4.011718 72.957031 3.5h1.28125c22.953126-.425782 42.753907-1.535156 43.863282-3.5h43.007812c6.917969-.003906 13.167969 4.128906 15.871094 10.496094 7.152344 18.402343 10.574219 38.039062 10.070312 57.773437 0 49.320313-44.203124 75.007813-44.203124 114.429687 1.453124 16.902344 5.007812 33.558594 10.582031 49.578126zm0 0" fill="#d4e1f4"/><path d="m247.480469 145.066406h-.066407c-1.707031 0-3.414062.164063-5.070312.28125-.851562.070313-1.707031.058594-2.628906.144532-3.71875.414062-7.398438 1.144531-11 2.175781-3.160156.941406-6.25 2.109375-9.238282 3.5-.359374.164062-.753906.257812-1.101562.425781-.734375.34375-1.375.855469-2.089844 1.203125-17.722656 9.175781-30.546875 25.636719-35.109375 45.066406-.347656 1.519531-.851562 2.96875-1.109375 4.523438-3.433594 21.132812 3.273438 42.652343 18.109375 58.09375.714844.742187 1.347657 1.535156 2.015625 2.320312 8.492188 10.019531 13.15625 22.730469 13.15625 35.867188-.007812 2.277343.449219 4.53125 1.339844 6.628906 1.730469 4.101563 4.992188 7.367187 9.097656 9.097656 2.097656.890625 4.351563 1.34375 6.628906 1.339844h34.132813c4.527344 0 8.867187-1.800781 12.070313-5 3.199218-3.199219 4.996093-7.542969 4.996093-12.066406-.128906-14.101563 5.222657-27.703125 14.925781-37.933594 19.070313-19.679687 24.507813-48.863281 13.808594-74.09375-10.699218-25.226563-35.460937-41.601563-62.867187-41.574219zm0 0" fill="#e3e7f2"/><path d="m108.113281 153.601562c-.640625 0-1.28125-.074218-1.910156-.214843-15.992187-4.210938-29.644531-14.628907-37.921875-28.945313-8.277344 14.316406-21.929688 24.734375-37.921875 28.945313-2.972656.679687-6.082031-.277344-8.15625-2.511719s-2.800781-5.40625-1.902344-8.320312c.894531-2.914063 3.28125-5.128907 6.253907-5.808594 20.535156-5.761719 34.324218-24.996094 33.191406-46.292969 0-4.710937 3.824218-8.53125 8.535156-8.53125s8.535156 3.820313 8.535156 8.53125c-1.328125 21.355469 12.542969 40.695313 33.191406 46.292969 4.234376.964844 7.070313 4.957031 6.585938 9.273437-.484375 4.316407-4.136719 7.578125-8.480469 7.582031zm0 0" fill="#3a3e48"/><path d="m68.28125 90.453125s0 18.203125 29.867188 18.203125c29.867187 0 29.867187-18.203125 29.867187-27.308594 0-27.304687-59.734375-36.402344-59.734375-72.8125 0 36.410156-59.734375 45.507813-59.734375 72.8125 0 9.105469 0 27.308594 29.867187 27.308594 29.867188 0 29.867188-18.203125 29.867188-18.203125" fill="#a4c2f7"/><path d="m494.949219 76.800781c0 37.703125-30.566407 68.265625-68.269531 68.265625-37.699219 0-68.265626-30.5625-68.265626-68.265625s30.566407-68.265625 68.265626-68.265625c37.703124 0 68.269531 30.5625 68.269531 68.265625zm0 0" fill="#ebeced"/><path d="m426.679688 8.535156v34.132813c-9.050782.015625-17.726563 3.601562-24.148438 9.984375l-24.148438-24.152344c12.820313-12.785156 30.191407-19.96875 48.296876-19.964844zm0 0" fill="#d4e1f4"/><path d="m474.980469 28.5-24.148438 24.152344c-6.421875-6.382813-15.101562-9.96875-24.152343-9.984375v-34.132813c18.109374-.003906 35.480468 7.179688 48.300781 19.964844zm0 0" fill="#d4e1f4"/><path d="m494.949219 76.800781h-34.132813c-.019531-9.050781-3.605468-17.730469-9.984375-24.148437l24.148438-24.152344c12.789062 12.820312 19.96875 30.191406 19.96875 48.300781zm0 0" fill="#a4c2f7"/><path d="m494.949219 76.800781c0 18.109375-7.179688 35.476563-19.96875 48.296875l-24.148438-24.148437c6.378907-6.417969 9.964844-15.097657 9.984375-24.148438zm0 0" fill="#d4e1f4"/><path d="m474.980469 125.097656c-12.820313 12.789063-30.191407 19.96875-48.300781 19.96875v-34.132812c9.050781-.015625 17.730468-3.605469 24.152343-9.984375zm0 0" fill="#d4e1f4"/><path d="m426.679688 110.933594v34.132812c-18.105469 0-35.476563-7.179687-48.296876-19.96875l24.148438-24.148437c6.421875 6.378906 15.097656 9.96875 24.148438 9.984375zm0 0" fill="#d4e1f4"/><path d="m402.53125 100.949219-24.148438 24.148437c-12.789062-12.820312-19.96875-30.1875-19.96875-48.296875h34.132813c.015625 9.050781 3.605469 17.730469 9.984375 24.148438zm0 0" fill="#d4e1f4"/><path d="m402.53125 52.652344c-6.378906 6.417968-9.96875 15.097656-9.984375 24.148437h-34.132813c0-18.109375 7.179688-35.480469 19.96875-48.300781zm0 0" fill="#d4e1f4"/><path d="m460.816406 76.800781c-.023437 16.257813-11.523437 30.242188-27.476562 33.398438-15.949219 3.15625-31.90625-5.394531-38.121094-20.417969-6.210938-15.027344-.945312-32.347656 12.574219-41.378906 13.523437-9.027344 31.539062-7.25 43.039062 4.25 6.378907 6.417968 9.964844 15.097656 9.984375 24.148437zm0 0" fill="#e3e7f2"/><path d="m104.121094 104.703125c.308594 1.210937.632812 2.398437 1.007812 3.515625 1.914063-.207031 3.816406-.554688 5.683594-1.03125-2.320312-.558594-4.566406-1.394531-6.691406-2.484375zm0 0" fill="#fff"/><path d="m8.546875 81.347656c0 9.105469 0 27.308594 29.867187 27.308594 4.347657.054688 8.679688-.4375 12.902344-1.46875-11.640625-2.742188-19.152344-14.046875-17.167968-25.839844 0-19.164062 29.386718-29.398437 46.933593-46.359375-7.808593-6.621093-12.457031-16.226562-12.800781-26.453125 0 36.410156-59.734375 45.507813-59.734375 72.8125zm0 0" fill="#fff"/><path d="m30.359375 153.386719c5.410156-1.359375 10.585937-3.515625 15.359375-6.398438-.511719-2.210937-.121094-4.53125 1.082031-6.453125 1.207031-1.921875 3.125-3.285156 5.335938-3.789062 3.796875-1.050782 7.4375-2.613282 10.8125-4.648438 1.972656-2.417968 3.75-4.984375 5.316406-7.683594.527344.921876 1.132813 1.707032 1.707031 2.5625 4.75-4.148437 8.535156-9.285156 11.089844-15.054687-.761719-1.757813-1.417969-3.5625-1.960938-5.398437-4.882812 1.480468-9.96875 2.1875-15.070312 2.089843-2.359375-.003906-4.714844-.148437-7.058594-.4375-4.890625 13.90625-16.238281 24.5625-30.417968 28.570313-4.597657 1.050781-7.46875 5.628906-6.417969 10.222656 1.050781 4.597656 5.628906 7.46875 10.222656 6.417969zm0 0" fill="#fff"/><path d="m83.035156 106.546875c.1875-.597656.367188-1.195313.527344-1.816406-.773438.398437-1.585938.792969-2.480469 1.152343.605469.238282 1.289063.449219 1.953125.664063zm0 0" fill="#fff"/><path d="m108.113281 153.601562c3.96875-.007812 7.410157-2.746093 8.304688-6.613281-6.519531-3.835937-12.300781-8.8125-17.066407-14.6875-2.578124-1.492187-5.007812-3.226562-7.253906-5.179687-3.0625 4.761718-6.769531 9.078125-11.015625 12.824218 7.183594 6.414063 15.796875 11.019532 25.121094 13.433594.628906.144532 1.269531.21875 1.910156.222656zm0 0" fill="#fff"/><path d="m101.902344 380.5 13.566406 10.242188-3.839844 7.765624c-1.101562 2.070313-.683594 4.621094 1.027344 6.226563l8.445312 8.535156-2.472656 2.472657c-1.820312 1.828124-2.105468 4.679687-.683594 6.828124l4.609376 6.914063c2.601562 3.992187 2.863281 9.074219.679687 13.308594-1.710937 3.546875-1.957031 7.625-.679687 11.351562 1.558593 3.714844 4.246093 6.847657 7.679687 8.960938 4.628906 3.121093 9.914063 5.136719 15.445313 5.886719 1.894531.242187 3.804687.355468 5.714843.339843h17.410157c12.941406-.007812 24.429687 8.28125 28.5 20.566407 2.726562 8.101562 10.3125 13.558593 18.859374 13.566406h25.601563c-8.546875-.007813-16.136719-5.464844-18.859375-13.566406-4.070312-12.285157-15.5625-20.574219-28.503906-20.566407h-17.40625c-1.910156.015625-3.820313-.097656-5.71875-.339843-5.53125-.75-10.816406-2.765626-15.445313-5.886719-3.433593-2.113281-6.117187-5.246094-7.679687-8.960938-1.277344-3.726562-1.03125-7.804687.683594-11.351562 2.179687-4.234375 1.921874-9.316407-.683594-13.308594l-4.605469-6.914063c-1.421875-2.148437-1.136719-5 .679687-6.828124l2.476563-2.472657-8.449219-8.535156c-1.707031-1.605469-2.125-4.15625-1.023437-6.226563l3.839843-7.765624-13.566406-10.242188c-5.8125-4.253906-7.46875-12.210938-3.839844-18.429688 8.957032-14.082031 27.816407-27.476562 27.816407-36.183593 0-11.261719-6.398438-18.855469-6.398438-35.753907.824219-12.421874 5.113281-24.363281 12.371094-34.472656 3.113281-5.082031 8.636719-8.183594 14.59375-8.195312h-25.601563c-5.957031.011718-11.480468 3.113281-14.589843 8.195312-7.261719 10.109375-11.546875 22.050782-12.375 34.472656 0 16.898438 6.402343 24.492188 6.402343 35.753907 0 8.707031-18.859374 22.101562-27.820312 36.183593-3.628906 6.21875-1.972656 14.175782 3.839844 18.429688zm0 0" fill="#fff"/><g fill="#428dff"><path d="m481.125 22.699219c-.0625-.058594-.078125-.144531-.136719-.207031-.0625-.058594-.136719-.074219-.195312-.125-29.914063-29.820313-78.3125-29.820313-108.222657 0-.058593.050781-.136718.066406-.195312.125-.058594.0625-.078125.148437-.136719.207031-29.808593 29.90625-29.808593 78.292969 0 108.203125.058594.058594.078125.144531.136719.203125.058594.058593.136719.078125.195312.128906 29.910157 29.820313 78.308594 29.820313 108.222657 0 .058593-.050781.132812-.070313.195312-.128906.058594-.058594.074219-.144531.136719-.203125 29.808594-29.910156 29.808594-78.296875 0-108.203125zm-6.65625 89.804687-12.210938-12.210937c3.023438-4.539063 5.140626-9.617188 6.238282-14.960938h17.234375c-1.410157 9.859375-5.285157 19.203125-11.261719 27.171875zm-106.839844-27.171875h17.238282c1.101562 5.34375 3.222656 10.421875 6.246093 14.960938l-12.21875 12.210937c-5.976562-7.96875-9.851562-17.3125-11.265625-27.171875zm11.265625-44.234375 12.210938 12.210938c-3.023438 4.539062-5.140625 9.617187-6.238281 14.957031h-17.238282c1.414063-9.859375 5.289063-19.203125 11.265625-27.167969zm47.785157 61.300782c-14.136719 0-25.597657-11.460938-25.597657-25.597657 0-14.140625 11.460938-25.601562 25.597657-25.601562 14.140624 0 25.601562 11.460937 25.601562 25.601562 0 6.789063-2.695312 13.300781-7.5 18.101563-4.800781 4.800781-11.308594 7.496094-18.101562 7.496094zm23.492187-61.15625c-4.535156-3.027344-9.613281-5.152344-14.957031-6.253907v-17.238281c9.859375 1.410156 19.203125 5.285156 27.167968 11.261719zm-32.023437-6.253907c-5.34375 1.097657-10.421876 3.21875-14.960938 6.246094l-12.210938-12.222656c7.96875-5.976563 17.3125-9.851563 27.171876-11.261719zm-14.960938 77.363281c4.539062 3.027344 9.617188 5.15625 14.960938 6.261719v17.238281c-9.859376-1.414062-19.203126-5.289062-27.171876-11.265624zm32.027344 6.261719c5.339844-1.101562 10.421875-3.222656 14.957031-6.246093l12.210937 12.21875c-7.964843 5.976562-17.308593 9.851562-27.167968 11.265624zm33.28125-50.347656c-1.101563-5.339844-3.222656-10.421875-6.246094-14.957031l12.21875-12.210938c5.976562 7.964844 9.851562 17.308594 11.261719 27.167969zm0 0"/><path d="m213.347656 358.398438h68.265625c4.714844 0 8.535157-3.820313 8.535157-8.53125 0-4.714844-3.820313-8.535157-8.535157-8.535157h-68.265625c-4.710937 0-8.53125 3.820313-8.53125 8.535157 0 4.710937 3.820313 8.53125 8.53125 8.53125zm0 0"/><path d="m238.949219 93.867188v17.066406c0 4.710937 3.820312 8.53125 8.53125 8.53125 4.714843 0 8.535156-3.820313 8.535156-8.53125v-17.066406c0-4.714844-3.820313-8.535157-8.535156-8.535157-4.710938 0-8.53125 3.820313-8.53125 8.535157zm0 0"/><path d="m313.851562 146.960938c3.335938 3.332031 8.734376 3.332031 12.066407 0l12.066406-12.066407c2.21875-2.140625 3.109375-5.316406 2.328125-8.296875-.78125-2.984375-3.109375-5.316406-6.09375-6.097656-2.984375-.777344-6.15625.109375-8.300781 2.328125l-12.066407 12.066406c-3.328124 3.332031-3.328124 8.734375 0 12.066407zm0 0"/><path d="m409.613281 221.867188c14.140625 0 25.601563-11.460938 25.601563-25.601563v-17.066406c0-4.710938-3.820313-8.53125-8.535156-8.53125-4.710938 0-8.53125 3.820312-8.53125 8.53125v17.066406c0 4.714844-3.820313 8.535156-8.535157 8.535156h-8.53125c-4.714843 0-8.535156 3.820313-8.535156 8.53125 0 4.714844 3.820313 8.535157 8.535156 8.535157zm0 0"/><path d="m366.949219 221.867188c4.710937 0 8.53125-3.820313 8.53125-8.535157 0-4.710937-3.820313-8.53125-8.53125-8.53125h-17.066407c-4.714843 0-8.535156 3.820313-8.535156 8.53125 0 4.714844 3.820313 8.535157 8.535156 8.535157zm0 0"/><path d="m93.882812 221.867188c4.710938 0 8.53125-3.820313 8.53125-8.535157 0-4.710937-3.820312-8.53125-8.53125-8.53125h-8.535156c-4.710937 0-8.53125-3.820312-8.53125-8.535156v-17.066406c0-4.710938-3.824218-8.53125-8.535156-8.53125s-8.535156 3.820312-8.535156 8.53125v17.066406c0 14.140625 11.464844 25.601563 25.601562 25.601563zm0 0"/><path d="m119.480469 213.332031c0 4.714844 3.820312 8.535157 8.535156 8.535157h17.066406c4.710938 0 8.53125-3.820313 8.53125-8.535157 0-4.710937-3.820312-8.53125-8.53125-8.53125h-17.066406c-4.714844 0-8.535156 3.820313-8.535156 8.53125zm0 0"/><path d="m156.976562 134.894531 12.066407 12.066407c3.347656 3.234374 8.671875 3.1875 11.960937-.105469 3.292969-3.289063 3.339844-8.613281.105469-11.960938l-12.066406-12.066406c-2.144531-2.21875-5.316407-3.105469-8.300781-2.328125-2.980469.78125-5.3125 3.113281-6.09375 6.097656-.78125 2.980469.109374 6.15625 2.328124 8.296875zm0 0"/><path d="m114.445312 456.867188c2.128907 5.480468 5.972657 10.125 10.957032 13.242187 7.671875 5.179687 16.746094 7.886719 26.003906 7.757813h17.398438c9.261718-.003907 17.488281 5.929687 20.410156 14.71875 3.859375 11.597656 14.714844 19.421874 26.941406 19.414062h107.441406c8.644532.40625 16.941406-3.445312 22.214844-10.304688 5.273438-6.863281 6.855469-15.871093 4.238281-24.117187-.929687-3.609375-2.011719-7.367187-3.140625-11.230469-4-11.679687-6.390625-23.847656-7.105468-36.171875 0-16.164062 8.769531-30.003906 18.917968-46.082031 11.878906-18.652344 25.292969-39.84375 25.292969-68.359375.554687-20.882813-3.117187-41.660156-10.789063-61.089844-4.007812-9.535156-13.347656-15.726562-23.6875-15.710937h-29.730468c8.859375-24.957032 4.226562-52.71875-12.261719-73.445313-16.484375-20.726562-42.492187-31.488281-68.804687-28.46875-23.269532 2.59375-44.074219 15.695313-56.464844 35.5625-12.390625 19.867188-15.007813 44.3125-7.097656 66.351563h-28.707032c-8.933594.035156-17.210937 4.699218-21.871094 12.320312-8.058593 11.449219-12.785156 24.90625-13.652343 38.878906.066406 8.175782 1.425781 16.285157 4.019531 24.039063 1.316406 3.664063 2.117188 7.496094 2.371094 11.382813-2.976563 4.945312-6.648438 9.441406-10.898438 13.347656-5.773437 5.703125-10.988281 11.945312-15.574218 18.644531-6.011719 9.976563-3.453126 22.890625 5.914062 29.816406l7.894531 5.914063-.699219 1.390625c-2.707031 5.378906-1.652343 11.890625 2.609376 16.144531l3.132812 3.121094c-1.933594 4.378906-1.5 9.4375 1.144531 13.425781l4.554688 6.824219c.9375 1.484375 1.003906 3.351562.179687 4.898437-2.707031 5.546875-3.121094 11.9375-1.152344 17.785157zm74.054688-253.167969c4.4375-26.304688 25.667969-46.542969 52.15625-49.714844 2.289062-.253906 4.59375-.382813 6.902344-.382813 14.679687-.046874 28.851562 5.378907 39.746094 15.214844 12.65625 11.339844 19.894531 27.523438 19.910156 44.515625 0 10.460938-2.773438 20.730469-8.039063 29.765625l-.050781.078125c-1.195312 2.058594-2.5 4.050781-3.910156 5.972657l-.125.171874c-1.277344 1.703126-2.652344 3.332032-4.113282 4.878907-.195312.203125-.359374.433593-.5625.640625-1.417968 1.46875-2.757812 3.003906-4.011718 4.589844-9.1875 10.695312-13.953125 24.492187-13.320313 38.578124-.003906.734376-.097656 1.460938-.28125 2.167969-.058593.527344-.164062 1.046875-.316406 1.554688-.28125.628906-.640625 1.21875-1.066406 1.757812-.53125 1.089844-1.441407 1.949219-2.5625 2.414063-.265625.222656-.554688.425781-.851563.605468-1.089844.46875-2.269531.703126-3.457031.691407h-34.132813c-4.710937 0-8.53125-3.820313-8.53125-8.53125.28125-16.207031-5.855468-31.867188-17.066406-43.574219-3.496094-3.589844-6.523437-7.601562-9.023437-11.945312l-.09375-.128907c-6.824219-11.894531-9.367188-25.773437-7.199219-39.320312zm-81.476562 169.992187c-2.277344-1.585937-3.007813-4.625-1.707032-7.074218 3.988282-5.707032 8.5-11.03125 13.480469-15.898438 8.363281-8.78125 15.582031-16.355469 15.582031-24.804688-.171875-5.648437-1.203125-11.234374-3.054687-16.570312-2.117188-6.1875-3.234375-12.671875-3.308594-19.210938.882813-10.832031 4.71875-21.214843 11.09375-30.019531 1.566406-2.5625 4.359375-4.121093 7.363281-4.113281h37.238282c.324218.488281.699218.921875 1.03125 1.398438.796874 1.128906 1.597656 2.253906 2.460937 3.335937 1.191406 1.527344 2.449219 2.972656 3.726563 4.378906.386718.410157.699218.855469 1.09375 1.273438 8.285156 8.695312 12.871093 20.269531 12.792968 32.28125 0 14.136719 11.460938 25.597656 25.597656 25.597656h34.132813c1.757813-.003906 3.511719-.183594 5.230469-.546875.085937 0 .164062-.058594.25-.074219 1.589844-.34375 3.144531-.839843 4.640625-1.484375.445312-.1875.855469-.480468 1.28125-.691406 1.082031-.511719 2.125-1.101562 3.121093-1.757812.605469-.417969 1.144532-.949219 1.707032-1.425782.742187-.574218 1.449218-1.1875 2.117187-1.84375.128907-.128906.28125-.222656.402344-.351562.433594-.457032.742187-1.011719 1.132813-1.507813.589843-.703125 1.136718-1.433593 1.648437-2.195312.402344-.621094.714844-1.277344 1.058594-1.933594.464843-.871094.882812-1.765625 1.253906-2.679687.253906-.667969.433594-1.339844.628906-2.023438.289063-.960938.523438-1.933594.703125-2.917969.125-.769531.167969-1.535156.230469-2.3125 0-.625.1875-1.222656.1875-1.851562-.152344-11.8125 4.285156-23.226563 12.378906-31.832031.15625-.152344.316407-.355469.460938-.503907 1.078125-1.125 2.082031-2.34375 3.097656-3.554687 1.855469-2.160156 3.582031-4.421875 5.179687-6.777344h38.28125c3.476563-.007812 6.617188 2.070312 7.972657 5.273438 6.765625 17.335937 9.976562 35.855468 9.4375 54.460937 0 23.566406-11.496094 41.71875-22.597657 59.273437-10.617187 16.742188-21.570312 34.054688-21.570312 55.167969.683594 13.945313 3.300781 27.730469 7.78125 40.957031 1.074219 3.703126 2.117188 7.304688 3.019531 10.753907 1.054688 3.199219.566407 6.707031-1.320312 9.496093-2.179688 2.46875-5.378907 3.78125-8.664063 3.550782h-107.441406c-4.882812 0-9.21875-3.125-10.761719-7.757813-5.234375-15.761719-19.980469-26.394531-36.589843-26.375h-17.398438c-5.78125.121094-11.464844-1.523437-16.285156-4.71875-3.546875-2.457031-4.351563-4.199219-4.496094-4.660156-.535156-1.613281-.417969-3.371094.324219-4.898437 3.4375-6.996094 2.933593-15.285157-1.332031-21.8125l-3.148438-4.726563.683594-.691406c1.601562-1.601563 2.503906-3.773438 2.503906-6.035157 0-2.265624-.902344-4.4375-2.503906-6.039062l-6.929688-6.921875 2.894532-5.773437c1.847656-3.691407.785156-8.175782-2.519532-10.652344zm0 0"/><path d="m26.554688 136.746094c-4.597657 1.050781-7.46875 5.628906-6.417969 10.222656 1.050781 4.597656 5.628906 7.46875 10.222656 6.417969 15.992187-4.210938 29.644531-14.628907 37.921875-28.945313 8.277344 14.316406 21.929688 24.734375 37.921875 28.945313.628906.140625 1.269531.214843 1.910156.214843 4.34375-.003906 7.996094-3.265624 8.480469-7.582031.484375-4.316406-2.351562-8.308593-6.585938-9.273437-11.671874-3.21875-21.554687-11-27.425781-21.589844 5.074219 1.378906 10.308594 2.0625 15.566407 2.03125 38.398437 0 38.398437-26.972656 38.398437-35.839844 0-17.183594-15.453125-27.691406-30.394531-37.851562-15.085938-10.265625-29.335938-19.96875-29.335938-34.960938 0-4.714844-3.824218-8.535156-8.535156-8.535156s-8.535156 3.820312-8.535156 8.535156c0 14.992188-14.25 24.695313-29.335938 34.984375-14.941406 10.136719-30.394531 20.644531-30.394531 37.828125 0 8.867188 0 35.839844 38.398437 35.839844 5.214844.035156 10.410157-.632812 15.445313-1.988281-5.925781 10.484375-15.730469 18.222656-27.304687 21.546875zm-9.472657-55.398438c0-8.148437 11.09375-15.726562 22.929688-23.746094 10.6875-6.46875 20.238281-14.648437 28.269531-24.21875 8.03125 9.570313 17.582031 17.75 28.269531 24.21875 11.835938 8.019532 22.929688 15.597657 22.929688 23.746094 0 9.234375 0 18.773438-21.332031 18.773438-19.796876 0-21.230469-8.71875-21.332032-9.90625-.070312-.625-.210937-1.234375-.421875-1.828125-.0625-.449219-.160156-.894531-.296875-1.328125-.289062-.554688-.640625-1.074219-1.050781-1.546875-.230469-.398438-.496094-.773438-.792969-1.125-.519531-.449219-1.09375-.832031-1.707031-1.136719-.320313-.242188-.65625-.464844-1.007813-.664062-2.105468-.886719-4.480468-.886719-6.585937 0-.347656.195312-.679687.414062-1 .65625-.609375.3125-1.183594.695312-1.703125 1.144531-.292969.347656-.558594.722656-.785156 1.117187-.40625.476563-.757813 1-1.050782 1.554688-.136718.429687-.234374.871094-.300781 1.320312-.191406.597656-.3125 1.210938-.367187 1.835938-.101563 1.1875-1.535156 9.90625-21.332032 9.90625-21.332031 0-21.332031-9.539063-21.332031-18.773438zm0 0"/></g></svg>