<svg height="512pt" viewBox="0 0 512 512" width="512pt" xmlns="http://www.w3.org/2000/svg"><path d="m25.601562 8.535156h460.796876c9.425781 0 17.066406 7.640625 17.066406 17.066406v460.796876c0 9.425781-7.640625 17.066406-17.066406 17.066406h-460.796876c-9.425781 0-17.066406-7.640625-17.066406-17.066406v-460.796876c0-9.425781 7.640625-17.066406 17.066406-17.066406zm0 0" fill="#d4e1f4"/><path d="m25.601562 8.535156h435.199219c9.425781 0 17.066407 7.640625 17.066407 17.066406v460.796876c0 9.425781-7.640626 17.066406-17.066407 17.066406h-435.199219c-9.425781 0-17.066406-7.640625-17.066406-17.066406v-460.796876c0-9.425781 7.640625-17.066406 17.066406-17.066406zm0 0" fill="#e3e7f2"/><path d="m349.867188 145.066406h102.398437c9.425781 0 17.066406 7.640625 17.066406 17.066406v170.667969c0 9.425781-7.640625 17.066407-17.066406 17.066407h-102.398437c-9.425782 0-17.066407-7.640626-17.066407-17.066407v-170.667969c0-9.425781 7.640625-17.066406 17.066407-17.066406zm0 0" fill="#e3e7f2"/><path d="m349.867188 349.867188c-9.425782 0-17.066407-7.640626-17.066407-17.066407v-164.550781l-37.957031 8.730469c-4.414062 1.015625-8.246094 3.746093-10.644531 7.585937-2.402344 3.84375-3.175781 8.480469-2.15625 12.894532l38.238281 166.324218c1.015625 4.414063 3.746094 8.242188 7.585938 10.644532 3.84375 2.402343 8.480468 3.175781 12.894531 2.15625l99.839843-22.949219c2.671876-.648438 5.140626-1.945313 7.195313-3.769531zm0 0" fill="#d4e1f4"/><path d="m284.644531 208.777344-21.304687 14.796875c-3.71875 2.582031-6.253906 6.539062-7.054688 10.992187-.800781 4.457032.203125 9.046875 2.785156 12.765625l51.527344 74.238281zm0 0" fill="#e3e7f2"/><path d="m401.066406 256s0 10.863281 17.066406 10.863281c17.066407 0 17.066407-11.289062 17.066407-16.929687 0-16.921875-34.132813-22.5625-34.132813-45.132813 0 22.570313-34.132812 28.210938-34.132812 45.132813 0 5.640625 0 16.929687 17.066406 16.929687s17.066406-10.863281 17.066406-10.863281" fill="#a4c2f7"/><path d="m119.464844 332.800781c0 14.136719-11.460938 25.597657-25.597656 25.597657-14.140626 0-25.601563-11.460938-25.601563-25.597657 0-14.140625 11.460937-25.601562 25.601563-25.601562 14.136718 0 25.597656 11.460937 25.597656 25.601562zm0 0" fill="#d4e1f4"/><path d="m145.066406 401.066406c0-25.601562-25.601562-42.667968-51.199218-42.667968-25.601563 0-51.199219 17.066406-51.199219 42.667968zm0 0" fill="#e3e7f2"/><path d="m119.464844 136.535156c0 14.136719-11.460938 25.597656-25.597656 25.597656-14.140626 0-25.601563-11.460937-25.601563-25.597656 0-14.140625 11.460937-25.601562 25.601563-25.601562 14.136718 0 25.597656 11.460937 25.597656 25.601562zm0 0" fill="#d4e1f4"/><path d="m145.066406 204.800781c0-25.601562-25.601562-42.667969-51.199218-42.667969-25.601563 0-51.199219 17.066407-51.199219 42.667969zm0 0" fill="#e3e7f2"/><path d="m503.464844 25.601562v51.199219h-494.929688v-51.199219c.027344-9.414062 7.652344-17.039062 17.066406-17.066406h460.796876c9.414062.027344 17.039062 7.652344 17.066406 17.066406zm0 0" fill="#a4c2f7"/><path d="m477.867188 25.601562v51.199219h-469.332032v-51.199219c.027344-9.414062 7.652344-17.039062 17.066406-17.066406h435.199219c9.414063.027344 17.039063 7.652344 17.066407 17.066406zm0 0" fill="#d4e1f4"/><path d="m503.464844 435.199219v51.199219c-.027344 9.414062-7.652344 17.039062-17.066406 17.066406h-460.796876c-9.414062-.027344-17.039062-7.652344-17.066406-17.066406v-51.199219zm0 0" fill="#a4c2f7"/><path d="m477.867188 435.199219v51.199219c-.027344 9.414062-7.652344 17.039062-17.066407 17.066406h-435.199219c-9.414062-.027344-17.039062-7.652344-17.066406-17.066406v-51.199219zm0 0" fill="#d4e1f4"/><g fill="#428dff"><path d="m51.199219 42.667969c0 4.710937-3.820313 8.53125-8.53125 8.53125-4.714844 0-8.535157-3.820313-8.535157-8.53125 0-4.714844 3.820313-8.535157 8.535157-8.535157 4.710937 0 8.53125 3.820313 8.53125 8.535157zm0 0"/><path d="m85.332031 42.667969c0 4.710937-3.820312 8.53125-8.53125 8.53125-4.714843 0-8.535156-3.820313-8.535156-8.53125 0-4.714844 3.820313-8.535157 8.535156-8.535157 4.710938 0 8.53125 3.820313 8.53125 8.535157zm0 0"/><path d="m119.464844 42.667969c0 4.710937-3.820313 8.53125-8.53125 8.53125-4.714844 0-8.535156-3.820313-8.535156-8.53125 0-4.714844 3.820312-8.535157 8.535156-8.535157 4.710937 0 8.53125 3.820313 8.53125 8.535157zm0 0"/><path d="m102.398438 256c0 4.710938-3.820313 8.535156-8.53125 8.535156-4.714844 0-8.535157-3.824218-8.535157-8.535156s3.820313-8.535156 8.535157-8.535156c4.710937 0 8.53125 3.824218 8.53125 8.535156zm0 0"/><path d="m136.535156 256c0 4.710938-3.824218 8.535156-8.535156 8.535156s-8.535156-3.824218-8.535156-8.535156 3.824218-8.535156 8.535156-8.535156 8.535156 3.824218 8.535156 8.535156zm0 0"/><path d="m170.667969 256c0 4.710938-3.820313 8.535156-8.535157 8.535156-4.710937 0-8.53125-3.824218-8.53125-8.535156s3.820313-8.535156 8.53125-8.535156c4.714844 0 8.535157 3.824218 8.535157 8.535156zm0 0"/><path d="m204.800781 256c0 4.710938-3.820312 8.535156-8.535156 8.535156-4.710937 0-8.53125-3.824218-8.53125-8.535156s3.820313-8.535156 8.53125-8.535156c4.714844 0 8.535156 3.824218 8.535156 8.535156zm0 0"/><path d="m238.933594 256c0 4.710938-3.820313 8.535156-8.535156 8.535156-4.710938 0-8.53125-3.824218-8.53125-8.535156s3.820312-8.535156 8.53125-8.535156c4.714843 0 8.535156 3.824218 8.535156 8.535156zm0 0"/></g><path d="m34.132812 486.398438v-460.796876c.027344-9.414062 7.652344-17.039062 17.066407-17.066406h-25.597657c-9.414062.027344-17.039062 7.652344-17.066406 17.066406v460.796876c.027344 9.414062 7.652344 17.039062 17.066406 17.066406h25.597657c-9.414063-.027344-17.039063-7.652344-17.066407-17.066406zm0 0" fill="#fff"/><path d="m17.066406 85.332031v401.066407h-17.066406v-401.066407zm0 0" fill="#fff"/><path d="m8.535156 162.132812c2.257813-.03125 4.421875-.917968 6.058594-2.472656 3.296875-3.367187 3.296875-8.753906 0-12.117187l-1.28125-1.027344c-.476562-.320313-.992188-.578125-1.535156-.765625-.484375-.246094-1.003906-.417969-1.539063-.511719-.5625-.097656-1.132812-.152343-1.703125-.171875-2.261718.035156-4.425781.917969-6.058594 2.476563-.773437.8125-1.382812 1.769531-1.792968 2.8125-1.289063 3.183593-.5859378 6.828125 1.792968 9.304687.8125.769532 1.769532 1.378906 2.8125 1.789063 1.027344.4375 2.128907.671875 3.246094.683593zm0 0" fill="#428dff"/><path d="m486.398438 0h-460.796876c-14.140624 0-25.601562 11.460938-25.601562 25.601562v93.863282c0 4.714844 3.820312 8.535156 8.535156 8.535156 4.710938 0 8.53125-3.820312 8.53125-8.535156v-34.132813h477.867188v341.335938h-477.867188v-238.933594c0-4.714844-3.820312-8.535156-8.53125-8.535156-4.714844 0-8.535156 3.820312-8.535156 8.535156v298.664063c0 14.140624 11.460938 25.601562 25.601562 25.601562h460.796876c14.140624 0 25.601562-11.460938 25.601562-25.601562v-460.796876c0-14.140624-11.460938-25.601562-25.601562-25.601562zm-469.332032 68.265625v-42.664063c0-4.714843 3.820313-8.535156 8.535156-8.535156h460.796876c4.714843 0 8.535156 3.820313 8.535156 8.535156v42.664063zm477.867188 418.132813c0 4.714843-3.820313 8.535156-8.535156 8.535156h-460.796876c-4.714843 0-8.535156-3.820313-8.535156-8.535156v-42.664063h477.867188zm0 0" fill="#428dff"/><path d="m42.667969 409.601562h102.398437c4.714844 0 8.535156-3.820312 8.535156-8.535156-.707031-20.929687-14.25-39.257812-34.050781-46.078125 7.78125-8.851562 10.390625-21.117187 6.886719-32.367187-3.5-11.253906-12.609375-19.871094-24.039062-22.742188v-9.746094c0-4.710937-3.820313-8.53125-8.53125-8.53125-4.714844 0-8.535157 3.820313-8.535157 8.53125v9.746094c-11.445312 2.863282-20.566406 11.488282-24.070312 22.753906-3.503907 11.269532-.882813 23.546876 6.917969 32.398438-19.785157 6.8125-33.324219 25.121094-34.046876 46.035156 0 4.714844 3.820313 8.535156 8.535157 8.535156zm34.132812-76.800781c0-9.425781 7.640625-17.066406 17.066407-17.066406 9.425781 0 17.066406 7.640625 17.066406 17.066406s-7.640625 17.066407-17.066406 17.066407c-9.425782 0-17.066407-7.640626-17.066407-17.066407zm17.066407 34.132813c17.585937 0 36.367187 9.582031 41.378906 25.601562h-82.773438c5.023438-16.019531 23.808594-25.601562 41.394532-25.601562zm0 0" fill="#428dff"/><path d="m34.132812 204.800781c0 4.710938 3.820313 8.53125 8.535157 8.53125h42.664062v8.535157c0 4.710937 3.820313 8.53125 8.535157 8.53125 4.710937 0 8.53125-3.820313 8.53125-8.53125v-8.535157h42.667968c4.714844 0 8.535156-3.820312 8.535156-8.53125-.722656-20.917969-14.261718-39.222656-34.050781-46.039062 5.417969-6.140625 8.417969-14.039063 8.449219-22.226563 0-18.851562-15.28125-34.136718-34.132812-34.136718-18.851563 0-34.132813 15.285156-34.132813 34.136718.027344 8.1875 3.03125 16.085938 8.445313 22.226563-19.785157 6.816406-33.324219 25.121093-34.046876 46.039062zm42.667969-68.265625c0-9.425781 7.640625-17.070312 17.066407-17.070312 9.425781 0 17.066406 7.644531 17.066406 17.070312 0 9.425782-7.640625 17.066406-17.066406 17.066406-9.425782 0-17.066407-7.640624-17.066407-17.066406zm17.066407 34.132813c17.585937 0 36.367187 9.582031 41.378906 25.597656h-82.773438c5.023438-16.015625 23.808594-25.597656 41.394532-25.597656zm0 0" fill="#428dff"/><path d="m252.039062 252.1875 50.578126 72.871094 9.335937 40.628906c1.523437 6.621094 5.617187 12.367188 11.378906 15.96875s12.722657 4.761719 19.339844 3.230469l99.839844-22.9375c2.785156-.722657 5.425781-1.925781 7.800781-3.550781h1.953125c14.140625 0 25.601563-11.460938 25.601563-25.597657v-170.667969c0-14.136718-11.460938-25.597656-25.601563-25.597656h-102.398437c-13.847657.03125-25.160157 11.066406-25.53125 24.90625l-31.402344 7.21875c-13.773438 3.171875-22.375 16.902344-19.210938 30.679688l1.316406 5.726562-16.5625 11.492188c-11.617187 8.0625-14.496093 24.011718-6.4375 35.628906zm89.292969-90.054688c0-4.710937 3.820313-8.53125 8.535157-8.53125h102.398437c4.714844 0 8.535156 3.820313 8.535156 8.53125v170.667969c0 4.710938-3.820312 8.53125-8.535156 8.53125h-102.398437c-4.714844 0-8.535157-3.820312-8.535157-8.53125zm-44.578125 23.160157 27.511719-6.324219v153.832031c0 14.136719 11.460937 25.597657 25.601563 25.597657h31.828124l-42.878906 9.859374c-2.207031.507813-4.527344.121094-6.445312-1.078124-1.921875-1.203126-3.289063-3.117188-3.796875-5.324219l-38.226563-166.339844c-1.054687-4.59375 1.816406-9.167969 6.40625-10.222656zm-28.550781 45.285156 10.949219-7.59375 13.175781 57.328125-26.265625-37.863281c-2.683594-3.871094-1.726562-9.183594 2.140625-11.871094zm0 0" fill="#428dff"/><path d="m384 275.386719c.648438 0 1.1875-.074219 1.808594-.101563-3.410156 3.125-7.542969 5.355469-12.03125 6.484375-4.292969.871094-7.230469 4.855469-6.792969 9.214844.4375 4.355469 4.101563 7.679687 8.480469 7.683594.574218 0 1.148437-.054688 1.707031-.171875 9.339844-2.082032 17.738281-7.179688 23.894531-14.507813 6.15625 7.328125 14.554688 12.425781 23.894532 14.507813 2.207031.457031 4.5.011718 6.378906-1.230469s3.1875-3.183594 3.628906-5.390625c.964844-4.601562-1.972656-9.113281-6.570312-10.097656-4.503907-1.125-8.65625-3.359375-12.082032-6.492188.613282 0 1.152344.101563 1.800782.101563 6.996093.886719 14.011718-1.5 19.015624-6.472657 5.003907-4.976562 7.429688-11.976562 6.582032-18.980468 0-12.167969-9.929688-19.492188-18.695313-25.960938-9.589843-7.089844-15.417969-11.910156-15.417969-19.171875 0-4.714843-3.820312-8.535156-8.535156-8.535156-4.710937 0-8.53125 3.820313-8.53125 8.535156 0 7.261719-5.832031 12.082031-15.4375 19.171875-8.765625 6.46875-18.699218 13.792969-18.699218 25.960938-.847657 7.003906 1.582031 14.003906 6.585937 18.980468 5 4.972657 12.015625 7.359376 19.015625 6.472657zm3.234375-37.683594c5.003906-3.441406 9.640625-7.394531 13.832031-11.792969 4.191406 4.398438 8.828125 8.351563 13.832032 11.792969 5.785156 4.269531 11.769531 8.679687 11.769531 12.230469 0 5.972656 0 8.386718-8.535157 8.386718-5.460937 0-8.242187-1.433593-8.53125-2.78125-.128906-4.710937-4.050781-8.429687-8.765624-8.304687-4.710938.128906-8.429688 4.054687-8.300782 8.765625 0 0-1.582031 2.320312-8.535156 2.320312-8.535156 0-8.535156-2.457031-8.535156-8.386718 0-3.550782 5.976562-7.960938 11.769531-12.230469zm0 0" fill="#428dff"/></svg>