<svg height="512pt" viewBox="0 0 512.04099 512" width="512pt" xmlns="http://www.w3.org/2000/svg"><path d="m503.464844 247.488281c0 94.460938-25.683594 112.296875-25.597656 170.664063h-117.332032c-5.71875-45.824219-10.667968-68.265625-10.667968-102.398438l93.441406-210.175781 8.957031-20.222656s51.199219 42.066406 51.199219 162.132812zm0 0" fill="#a4c2f7"/><path d="m477.867188 247.488281c0 94.460938-25.6875 112.296875-25.601563 170.664063h-91.730469c-5.71875-45.824219-10.667968-68.265625-10.667968-102.398438l93.441406-210.175781c14.929687 23.039063 34.558594 67.5 34.558594 141.910156zm0 0" fill="#d4e1f4"/><path d="m503.464844 435.21875v68.269531h-162.132813v-68.269531c.03125-9.414062 7.652344-17.035156 17.066407-17.066406h128c9.414062.03125 17.039062 7.652344 17.066406 17.066406zm0 0" fill="#a4c2f7"/><path d="m477.867188 435.21875v68.269531h-136.535157v-68.269531c.03125-9.414062 7.652344-17.035156 17.066407-17.066406h102.402343c9.414063.03125 17.039063 7.652344 17.066407 17.066406zm0 0" fill="#e3e7f2"/><path d="m290.132812 315.753906h128c0-34.132812 8.535157-51.199218 8.535157-76.800781 0-25.597656-8.535157-42.664063-8.535157-59.734375 0-17.066406 8.535157-42.664062 25.601563-42.664062 3.453125.070312 6.648437 1.847656 8.53125 4.742187v-124.210937c0-4.710938-3.820313-8.53125-8.53125-8.53125h-153.601563c-4.710937 0-8.53125 3.820312-8.53125 8.53125v290.132812c0 4.714844 3.820313 8.535156 8.53125 8.535156zm0 0" fill="#e3e7f2"/><path d="m418.132812 59.753906c0 9.425782-7.640624 17.066406-17.066406 17.066406-9.425781 0-17.066406-7.640624-17.066406-17.066406 0-9.425781 7.640625-17.066406 17.066406-17.066406 9.425782 0 17.066406 7.640625 17.066406 17.066406zm0 0" fill="#f5f5f5"/><path d="m412.246094 72.554688c-6.367188 5.6875-15.992188 5.6875-22.359375 0-5.382813 4.664062-7.300781 12.1875-4.808594 18.859374 2.488281 6.675782 8.863281 11.101563 15.988281 11.101563s13.5-4.425781 15.992188-11.101563c2.488281-6.671874.570312-14.195312-4.8125-18.859374zm0 0" fill="#e3e7f2"/><path d="m110.933594 281.621094h59.734375c4.710937 0 8.53125-3.820313 8.53125-8.535156v-17.066407c0-4.710937-3.820313-8.53125-8.53125-8.53125h-153.601563c-4.710937 0-8.53125 3.820313-8.53125 8.53125v17.066407c0 4.714843 3.820313 8.535156 8.53125 8.535156zm0 0" fill="#f4cd1e"/><path d="m233.558594 430.953125c-1.394532-4.5-6.167969-7.019531-10.667969-5.632813l-24.492187 7.511719-32.597657 10.070313-32.679687 9.980468-32.597656 10.070313-24.492188 7.511719c-4.464844 1.429687-6.96875 6.167968-5.632812 10.664062l5.035156 16.300782c.652344 2.175781 2.144531 4.003906 4.144531 5.074218 2.003906 1.074219 4.351563 1.304688 6.523437.640625l24.492188-7.59375 32.59375-9.984375 32.597656-10.070312 32.683594-10.066406 24.40625-7.511719c2.175781-.648438 4.003906-2.140625 5.078125-4.144531 1.070313-2 1.300781-4.347657.640625-6.519532zm0 0" fill="#f4cd1e"/><path d="m291.5 367.890625-24.746094-6.738281-32.941406-8.960938v-.085937l-32.9375-8.960938-32.9375-8.957031-24.664062-6.742188c-2.183594-.601562-4.515626-.3125-6.484376.808594s-3.410156 2.980469-4.011718 5.164063l-4.4375 16.46875c-.601563 2.183593-.308594 4.519531.8125 6.488281s2.976562 3.410156 5.164062 4.007812l24.660156 6.742188 32.9375 8.960938 32.9375 8.957031 32.941407 8.960937 24.660156 6.742188c2.183594.632812 4.53125.355468 6.511719-.769532 1.976562-1.125 3.414062-3.003906 3.984375-5.203124l4.523437-16.46875c1.199219-4.523438-1.464844-9.164063-5.972656-10.414063zm0 0" fill="#f4cd1e"/><path d="m179.199219 256.019531v17.066407c0 4.714843-3.820313 8.535156-8.53125 8.535156h-25.601563v-34.132813h25.601563c4.710937 0 8.53125 3.820313 8.53125 8.53125zm0 0" fill="#e3e7f2"/><path d="m110.933594 247.488281h34.132812v34.132813h-34.132812zm0 0" fill="#a4c2f7"/><path d="m76.800781 247.488281h34.132813v34.132813h-34.132813zm0 0" fill="#e3e7f2"/><path d="m42.667969 247.488281h34.132812v34.132813h-34.132812zm0 0" fill="#a4c2f7"/><path d="m42.667969 247.488281v34.132813h-25.601563c-4.710937 0-8.53125-3.820313-8.53125-8.535156v-17.066407c0-4.710937 3.820313-8.53125 8.53125-8.53125zm0 0" fill="#e3e7f2"/><path d="m110.59375 495.550781-24.492188 7.59375c-2.171874.664063-4.519531.433594-6.523437-.640625-2-1.070312-3.492187-2.898437-4.144531-5.074218l-5.035156-16.300782c-1.335938-4.496094 1.167968-9.234375 5.632812-10.664062l24.492188-7.511719zm0 0" fill="#e3e7f2"/><path d="m143.1875 485.566406-32.59375 9.984375-10.070312-32.597656 32.597656-10.070313zm0 0" fill="#a4c2f7"/><path d="m175.785156 475.496094-32.597656 10.070312-10.066406-32.683594 32.679687-9.980468zm0 0" fill="#e3e7f2"/><path d="m208.46875 465.429688-32.683594 10.066406-9.984375-32.59375 32.597657-10.070313zm0 0" fill="#a4c2f7"/><path d="m232.875 457.917969-24.40625 7.511719-10.070312-32.597657 24.492187-7.511719c4.5-1.386718 9.273437 1.132813 10.667969 5.632813l5.035156 16.300781c.660156 2.171875.429688 4.519532-.640625 6.519532-1.074219 2.003906-2.902344 3.496093-5.078125 4.144531zm0 0" fill="#e3e7f2"/><path d="m297.472656 378.304688-4.523437 16.46875c-.570313 2.199218-2.007813 4.078124-3.984375 5.203124-1.980469 1.125-4.328125 1.402344-6.511719.769532l-24.660156-6.742188 8.960937-32.851562 24.746094 6.738281c4.507812 1.25 7.171875 5.890625 5.972656 10.414063zm0 0" fill="#e3e7f2"/><path d="m224.855469 385.03125 8.960937-32.855469 32.933594 8.984375-8.964844 32.855469zm0 0" fill="#a4c2f7"/><path d="m158.980469 367.125 8.957031-32.9375 32.9375 8.960938-8.960938 32.9375zm0 0" fill="#a4c2f7"/><path d="m167.9375 334.1875-8.960938 32.9375-24.660156-6.742188c-2.1875-.597656-4.042968-2.039062-5.164062-4.007812s-1.414063-4.304688-.8125-6.488281l4.4375-16.46875c.601562-2.183594 2.042968-4.042969 4.011718-5.164063s4.300782-1.410156 6.484376-.808594zm0 0" fill="#e3e7f2"/><path d="m233.8125 352.105469v.085937l-8.960938 32.851563-32.9375-8.957031 8.960938-32.941407zm0 0" fill="#e3e7f2"/><path d="m162.132812 76.820312c0 37.703126-30.5625 68.265626-68.265624 68.265626-37.703126 0-68.265626-30.5625-68.265626-68.265626 0-37.703124 30.5625-68.265624 68.265626-68.265624 37.703124 0 68.265624 30.5625 68.265624 68.265624zm0 0" fill="#ebeced"/><g fill="#d4e1f4"><path d="m93.867188 8.554688v34.132812c-9.050782.015625-17.730469 3.605469-24.148438 9.984375l-24.152344-24.148437c12.824219-12.789063 30.191406-19.972657 48.300782-19.96875zm0 0"/><path d="m142.164062 28.523438-24.148437 24.148437c-6.417969-6.378906-15.097656-9.96875-24.148437-9.984375v-34.132812c18.109374-.003907 35.476562 7.179687 48.296874 19.96875zm0 0"/><path d="m162.132812 76.820312h-34.132812c-.015625-9.050781-3.605469-17.730468-9.984375-24.148437l24.148437-24.148437c12.789063 12.820312 19.96875 30.1875 19.96875 48.296874zm0 0"/><path d="m162.132812 76.820312c0 18.109376-7.179687 35.476563-19.96875 48.300782l-24.148437-24.152344c6.378906-6.417969 9.96875-15.097656 9.984375-24.148438zm0 0"/><path d="m142.164062 125.121094c-12.820312 12.785156-30.1875 19.96875-48.296874 19.964844v-34.132813c9.050781-.015625 17.730468-3.601563 24.148437-9.984375zm0 0"/><path d="m93.867188 110.953125v34.132813c-18.109376.003906-35.476563-7.179688-48.300782-19.964844l24.152344-24.152344c6.417969 6.382812 15.097656 9.96875 24.148438 9.984375zm0 0"/><path d="m69.71875 100.96875-24.152344 24.152344c-12.785156-12.824219-19.96875-30.191406-19.964844-48.300782h34.132813c.015625 9.050782 3.601563 17.730469 9.984375 24.148438zm0 0"/><path d="m69.71875 52.671875c-6.382812 6.417969-9.96875 15.097656-9.984375 24.148437h-34.132813c-.003906-18.109374 7.179688-35.476562 19.964844-48.296874zm0 0"/><path d="m128 76.820312c-.019531 16.261719-11.523438 30.242188-27.472656 33.398438-15.949219 3.15625-31.910156-5.390625-38.121094-20.417969-6.214844-15.027343-.949219-32.347656 12.574219-41.375 13.523437-9.03125 31.539062-7.253906 43.035156 4.246094 6.378906 6.417969 9.96875 15.097656 9.984375 24.148437zm0 0"/></g><path d="m315.734375 8.554688v307.199218h-25.601563c-4.710937 0-8.53125-3.820312-8.53125-8.535156v-290.132812c0-4.710938 3.820313-8.53125 8.53125-8.53125zm0 0" fill="#a4c2f7"/><path d="m341.332031 469.355469h162.132813v34.132812h-162.132813zm0 0" fill="#d4e1f4"/><path d="m341.332031 469.355469h136.535157v34.132812h-136.535157zm0 0" fill="#e3e7f2"/><path d="m384 443.753906c0 4.710938-3.820312 8.535156-8.535156 8.535156-4.710938 0-8.53125-3.824218-8.53125-8.535156 0-4.714844 3.820312-8.535156 8.53125-8.535156 4.714844 0 8.535156 3.820312 8.535156 8.535156zm0 0" fill="#428dff"/><path d="m217.515625 376.085938-32.941406-8.960938-24.660157-6.742188c-2.183593-.597656-4.042968-2.039062-5.160156-4.007812-1.121094-1.96875-1.414062-4.304688-.8125-6.488281l4.4375-16.46875c.226563-.570313.511719-1.113281.851563-1.621094l-15.929688-4.351563c-2.183593-.601562-4.519531-.3125-6.488281.808594s-3.410156 2.980469-4.007812 5.164063l-4.464844 16.46875c-.601563 2.183593-.308594 4.519531.8125 6.488281s2.976562 3.410156 5.164062 4.007812l24.660156 6.742188 32.9375 8.960938 32.9375 8.957031" fill="#fff"/><path d="m35.292969 41.886719c-12.976563 21.582031-12.921875 48.578125.144531 70.109375 2.839844 4.765625 6.238281 9.171875 10.128906 13.125 3.957032 3.886718 8.363282 7.289062 13.125 10.128906 10.605469 6.429688 22.773438 9.835938 35.175782 9.835938 4.296874-.011719 8.582031-.425782 12.800781-1.234376-7.910157-1.519531-15.488281-4.429687-22.375-8.601562-4.765625-2.839844-9.171875-6.242188-13.125-10.128906-3.890625-3.953125-7.292969-8.359375-10.128907-13.125-13.066406-21.53125-13.121093-48.527344-.144531-70.109375 5.675781-9.785157 13.804688-17.917969 23.585938-23.597657 6.835937-4.128906 14.34375-7.019531 22.1875-8.53125-4.222657-.800781-8.507813-1.203124-12.800781-1.203124-12.332032.003906-24.425782 3.371093-34.988282 9.734374-9.78125 5.679688-17.910156 13.8125-23.585937 23.597657zm0 0" fill="#fff"/><path d="m222.890625 425.320312-24.492187 7.511719-32.597657 10.070313-32.679687 9.980468-32.597656 10.070313-24.492188 7.511719c-4.464844 1.429687-6.96875 6.167968-5.632812 10.664062l5.035156 16.300782c.652344 2.175781 2.144531 4.003906 4.144531 5.074218 2.003906 1.074219 4.351563 1.304688 6.523437.640625l15.445313-4.777343c-.191406-.296876-.359375-.609376-.503906-.929688l-5.035157-16.300781c-1.335937-4.492188 1.164063-9.234375 5.632813-10.664063l24.492187-7.511718 32.597657-10.066407 32.679687-9.984375 32.597656-10.070312" fill="#fff"/><path d="m8.535156 273.085938c0 4.714843 3.820313 8.535156 8.53125 8.535156h25.601563c-4.714844 0-8.535157-3.820313-8.535157-8.535156v-17.066407c0-4.710937 3.820313-8.53125 8.535157-8.53125h-25.601563c-4.710937 0-8.53125 3.820313-8.53125 8.53125zm0 0" fill="#fff"/><path d="m512 247.488281c0-106.984375-39.578125-154.257812-51.199219-165.839843v-64.5625c0-9.425782-7.640625-17.0664068-17.066406-17.0664068h-153.601563c-9.425781 0-17.066406 7.6406248-17.066406 17.0664068v290.132812c0 9.425781 7.640625 17.070312 17.066406 17.070312h51.3125c.804688 20.828126 2.875 41.589844 6.195313 62.171876 1.039063 7.425781 2.15625 15.453124 3.328125 24.386718-10.757812 3.246094-18.128906 13.136719-18.167969 24.371094v68.269531c0 4.710938 3.820313 8.53125 8.53125 8.53125h162.132813c4.714844 0 8.535156-3.820312 8.535156-8.53125v-68.269531c0-14.0625-11.347656-25.496094-25.414062-25.597656 1.175781-17.945313 4.535156-35.679688 10.003906-52.8125 10.773437-35.421875 15.972656-72.300782 15.410156-109.320313zm-68.265625-119.46875c-23.289063 0-34.132813 30.550781-34.132813 51.199219.316407 8.671875 1.601563 17.277344 3.828126 25.660156 2.894531 11.136719 4.472656 22.574219 4.703124 34.074219-.226562 10.476563-1.457031 20.90625-3.667968 31.148437-.511719 2.816407-1.042969 5.742188-1.554688 8.769532-.160156.957031-.304687 1.972656-.460937 2.953125-.367188 2.238281-.707031 4.53125-1.023438 6.921875-.171875 1.289062-.316406 2.628906-.46875 3.960937-.257812 2.273438-.480469 4.632813-.675781 7.082031-.117188 1.476563-.21875 2.960938-.304688 4.496094-.0625 1-.15625 1.902344-.199218 2.933594h-85.511719v-290.132812h119.46875zm-153.601563-110.933593h17.066407v290.132812h-17.066407zm59.734376 477.867187v-17.066406h145.066406v17.066406zm145.066406-59.734375v25.601562h-145.066406v-25.601562c0-4.710938 3.820312-8.53125 8.53125-8.53125h128c4.714843 0 8.535156 3.820312 8.535156 8.53125zm-14.789063-82.96875c-5.90625 18.609375-9.484375 37.878906-10.640625 57.371094h-101.488281c-1.21875-9.386719-2.386719-17.777344-3.472656-25.515625-3.1875-19.804688-5.203125-39.777344-6.03125-59.816407h51.710937c1.460938 10.183594 4.429688 20.097657 8.808594 29.414063 1.359375 2.726563 4.074219 4.523437 7.117188 4.707031 3.042968.1875 5.953124-1.265625 7.636718-3.808594 1.683594-2.542968 1.878906-5.792968.519532-8.519531-4.515626-9.507812-7.109376-19.816406-7.636719-30.328125.121093-14.308594 1.65625-28.566406 4.589843-42.574218 2.398438-11.257813 3.71875-22.71875 3.941407-34.226563-.222657-12.761719-1.941407-25.457031-5.121094-37.820313-1.917969-7.160156-3.0625-14.507812-3.410156-21.914062 0-15.460938 7.609375-34.132812 17.066406-34.132812.210937.027343.417969.097656.605469.207031.433594.308593.808594.691406 1.109375 1.132812.234375.261719.488281.507813.757812.734375 4.269531 6.914063 7.3125 29.867188 8.738281 40.6875 1.382813 12.136719 3.421876 24.1875 6.109376 36.105469.679687 3.019531 2.941406 5.433594 5.914062 6.308594 2.96875.878906 6.179688.078125 8.386719-2.089844 2.210937-2.167969 3.074219-5.363281 2.253906-8.351563-2.523437-11.296874-4.441406-22.722656-5.742187-34.226562-2.429688-18.304688-4.785157-35.96875-11.09375-46.796875v-29.867187c14.199218 21.273437 34.132812 64.265624 34.132812 138.582031.539062 35.46875-4.441406 70.800781-14.761719 104.738281zm0 0" fill="#428dff"/><path d="m401.066406 110.953125c14.140625 0 25.601563-11.460937 25.601563-25.597656-.050781-4.488281-1.292969-8.878907-3.601563-12.726563 2.332032-3.890625 3.574219-8.335937 3.601563-12.875 0-14.136718-11.460938-25.601562-25.601563-25.601562-14.136718 0-25.601562 11.464844-25.601562 25.601562.027344 4.539063 1.273437 8.984375 3.601562 12.875-2.308594 3.847656-3.550781 8.238282-3.601562 12.726563 0 14.136719 11.464844 25.597656 25.601562 25.597656zm0-17.066406c-4.710937 0-8.53125-3.820313-8.53125-8.53125-.003906-.488281.039063-.972657.125-1.453125.511719.179687 1.050782.265625 1.570313.410156.75.203125 1.476562.433594 2.253906.582031 1.046875.167969 2.097656.273438 3.15625.3125.488281 0 .941406.148438 1.425781.148438.488282 0 .9375-.121094 1.425782-.148438 1.058593-.039062 2.113281-.144531 3.15625-.3125.777343-.148437 1.503906-.378906 2.253906-.582031.519531-.144531 1.058594-.230469 1.570312-.410156.085938.480468.128906.964844.128906 1.453125 0 4.710937-3.820312 8.53125-8.535156 8.53125zm0-42.667969c4.714844 0 8.535156 3.820312 8.535156 8.535156-.039062 2.804688-1.476562 5.40625-3.832031 6.929688-2.765625 2.132812-6.621093 2.132812-9.386719 0-2.363281-1.519532-3.808593-4.121094-3.847656-6.929688 0-2.261718.898438-4.433594 2.496094-6.035156 1.601562-1.597656 3.773438-2.5 6.035156-2.5zm0 0" fill="#428dff"/><path d="m349.867188 290.152344c4.710937 0 8.53125-3.820313 8.53125-8.53125v-59.734375c0-4.710938-3.820313-8.53125-8.53125-8.53125-4.714844 0-8.535157 3.820312-8.535157 8.53125v59.734375c0 4.710937 3.820313 8.53125 8.535157 8.53125zm0 0" fill="#428dff"/><path d="m384 290.152344c4.710938 0 8.535156-3.820313 8.535156-8.53125v-102.402344c0-4.710938-3.824218-8.53125-8.535156-8.53125s-8.535156 3.820312-8.535156 8.53125v102.402344c0 4.710937 3.824218 8.53125 8.535156 8.53125zm0 0" fill="#428dff"/><path d="m17.066406 290.152344h153.601563c9.425781 0 17.066406-7.640625 17.066406-17.066406v-17.066407c0-9.425781-7.640625-17.066406-17.066406-17.066406h-153.601563c-9.425781 0-17.066406 7.640625-17.066406 17.066406v17.066407c0 9.425781 7.640625 17.066406 17.066406 17.066406zm85.332032-17.066406h-17.066407v-17.066407h17.066407zm17.066406-17.066407h17.070312v17.066407h-17.070312zm-51.199219 17.066407h-17.066406v-17.066407h17.066406zm102.402344 0h-17.066407v-17.066407h17.066407zm-153.601563-17.066407h17.066406v17.066407h-17.066406zm0 0" fill="#428dff"/><path d="m245.488281 457.75c2.125-4.003906 2.566407-8.6875 1.21875-13.015625l-5.015625-16.339844c-2.777344-9.007812-12.328125-14.054687-21.335937-11.28125l-57.085938 17.570313-32.605469 10.035156-32.609374 10.035156-24.4375 7.527344c-4.328126 1.332031-7.945313 4.324219-10.0625 8.328125-2.117188 4-2.558594 8.675781-1.226563 13.003906l5.015625 16.308594c2.175781 7.148437 8.75 12.050781 16.222656 12.097656 1.714844 0 3.417969-.257812 5.050782-.765625l24.425781-7.519531h.039062l32.589844-10.027344 32.675781-10.058593 32.585938-10.027344 24.441406-7.527344c4.351562-1.316406 7.992188-4.324219 10.113281-8.34375zm-64 7.074219-5.019531-16.308594 16.316406-5.027344 5.015625 16.308594zm-32.625 10.042969-5.015625-16.308594 16.316406-5.027344 5.015626 16.308594zm-32.621093 10.042968-5.019532-16.308594 16.316406-5.023437 5.019532 16.304687zm-32.617188 10.042969-5.015625-16.304687 16.28125-5.027344 5.019531 16.304687zm146.773438-45.226563-16.3125 5.027344-5.019532-16.28125 16.316406-5.027344zm0 0" fill="#428dff"/><path d="m280.242188 409.023438c1.457031.398437 2.960937.597656 4.472656.597656 7.699218 0 14.449218-5.15625 16.46875-12.585938l4.488281-16.453125c2.484375-9.085937-2.863281-18.464843-11.945313-20.957031l-90.582031-24.707031-57.625-15.75c-9.085937-2.484375-18.464843 2.863281-20.957031 11.945312l-4.488281 16.453125c-2.484375 9.085938 2.863281 18.464844 11.945312 20.957032l90.554688 24.746093 57.660156 15.753907zm4.480468-16.46875-16.460937-4.488282 4.496093-16.46875 16.460938 4.488282zm-49.398437-13.476563 4.496093-16.46875 16.460938 4.5-4.488281 16.46875zm-32.929688-8.976563 4.496094-16.46875 16.460937 4.488282-4.488281 16.46875zm-32.929687-8.984374 4.496094-16.460938 16.460937 4.488281-4.488281 16.46875zm-28.441406-25.445313 16.46875 4.488281-4.488282 16.46875-16.46875-4.488281zm0 0" fill="#428dff"/><path d="m39.558594 131.125c.0625.0625.148437.078125.207031.136719 29.90625 29.8125 78.292969 29.8125 108.203125 0 .058594-.058594.144531-.074219.203125-.136719.0625-.058594.078125-.136719.128906-.195312 29.820313-29.910157 29.820313-78.308594 0-108.21875-.050781-.058594-.066406-.136719-.128906-.195313-.058594-.0625-.144531-.078125-.203125-.136719-29.910156-29.808594-78.296875-29.808594-108.203125 0-.058594.058594-.144531.074219-.207031.136719-.058594.058594-.074219.136719-.125.195313-29.820313 29.910156-29.820313 78.308593 0 108.21875.050781.058593.066406.136718.125.195312zm6.519531-90.007812 12.230469 12.210937c-3.027344 4.539063-5.152344 9.617187-6.253906 14.960937h-17.238282c1.414063-9.859374 5.285156-19.207031 11.261719-27.171874zm106.839844 27.171874h-17.238281c-1.101563-5.34375-3.222657-10.421874-6.246094-14.960937l12.21875-12.210937c5.976562 7.964843 9.851562 17.3125 11.265625 27.171874zm-11.265625 44.234376-12.210938-12.210938c3.023438-4.539062 5.140625-9.617188 6.238282-14.957031h17.238281c-1.414063 9.859375-5.289063 19.203125-11.265625 27.167969zm-47.785156-61.304688c14.136718 0 25.597656 11.464844 25.597656 25.601562 0 14.136719-11.460938 25.601563-25.597656 25.601563-14.140626 0-25.601563-11.464844-25.601563-25.601563 0-14.136718 11.460937-25.601562 25.601563-25.601562zm-23.492188 61.160156c4.535156 3.03125 9.617188 5.152344 14.957031 6.253906v17.238282c-9.859375-1.414063-19.203125-5.285156-27.167969-11.265625zm32.023438 6.253906c5.34375-1.097656 10.421874-3.21875 14.960937-6.246093l12.210937 12.21875c-7.96875 5.980469-17.3125 9.851562-27.171874 11.265625zm14.960937-77.363281c-4.535156-3.03125-9.617187-5.15625-14.960937-6.261719v-17.238281c9.859374 1.414063 19.203124 5.285157 27.171874 11.265625zm-32.027344-6.261719c-5.339843 1.097657-10.421875 3.21875-14.957031 6.246094l-12.210938-12.21875c7.964844-5.980468 17.308594-9.851562 27.167969-11.265625zm-33.277343 50.347657c1.097656 5.339843 3.21875 10.417969 6.246093 14.957031l-12.222656 12.210938c-5.976563-7.964844-9.847656-17.308594-11.261719-27.167969zm0 0" fill="#428dff"/></svg>