<?xml version="1.0" encoding="UTF-8"?> <svg xmlns="http://www.w3.org/2000/svg" height="512pt" viewBox="0 0 512.00047 512" width="512pt"><path d="m136.535156 221.867188 17.066406 179.199218 102.398438 68.265625 145.066406-136.53125-34.132812-102.402343zm0 0" fill="#d4e1f4"></path><path d="m480.683594 273.578125-88.148438-31.144531-6.316406 6.824218-31.660156 34.050782c-14.164063 98.472656-64.59375 136.445312-87.378906 156.242187-.890626.789063-1.863282 1.472657-2.902344 2.050781-5.160156 2.8125-11.394532 2.8125-16.554688 0-1.039062-.578124-2.011718-1.261718-2.902344-2.050781-.511718-.425781-1.023437-.9375-1.621093-1.363281-23.464844-20.222656-71.933594-58.625-85.757813-154.878906l-37.972656-40.875-19.285156 6.824218-68.867188 24.320313c-13.660156 4.789063-22.800781 17.695313-22.78125 32.171875v180.648438c.027344 9.414062 7.652344 17.039062 17.066406 17.070312h460.800782c9.414062-.03125 17.035156-7.65625 17.066406-17.070312v-180.648438c.019531-14.476562-9.121094-27.382812-22.785156-32.171875zm0 0" fill="#a4c2f7"></path><path d="m503.46875 305.75v180.648438c-.03125 9.414062-7.652344 17.039062-17.066406 17.070312h-25.601563c9.414063-.03125 17.039063-7.65625 17.066407-17.070312v-180.648438c.019531-14.476562-9.121094-27.382812-22.785157-32.171875l-68.863281-24.320313 6.316406-6.824218 88.148438 31.144531c13.664062 4.789063 22.804687 17.695313 22.785156 32.171875zm0 0" fill="#7facfa"></path><path d="m477.867188 305.75v180.648438c-.027344 9.414062-7.652344 17.039062-17.066407 17.070312h-435.199219c-9.414062-.03125-17.039062-7.65625-17.066406-17.070312v-180.648438c-.019531-14.476562 9.121094-27.382812 22.78125-32.171875l68.867188-24.320313 19.285156-6.824218 37.972656 40.875c13.824219 96.253906 62.292969 134.65625 85.757813 154.878906.597656.425781 1.109375.9375 1.621093 1.363281.890626.789063 1.863282 1.472657 2.902344 2.050781 5.160156 2.8125 11.394532 2.8125 16.554688 0 1.039062-.578124 2.011718-1.261718 2.902344-2.050781 22.785156-19.796875 73.214843-57.769531 87.378906-156.242187l31.660156-34.050782 68.863281 24.320313c13.664063 4.789063 22.804688 17.695313 22.785157 32.171875zm0 0" fill="#d4e1f4"></path><path d="m332.800781 151.125v57.761719l-51.199219 21.511719c.25-4.984376-3.550781-9.25-8.535156-9.5625h-34.132812c-4.984375.3125-8.785156 4.578124-8.53125 9.5625l-51.203125-21.511719v-57.761719zm0 0" fill="#a4c2f7"></path><path d="m375.46875 8.535156v51.199219c0 65.980469-53.488281 119.464844-119.46875 119.464844-4.273438-.007813-8.546875-.238281-12.800781-.683594-60.675781-6.535156-106.667969-57.753906-106.664063-118.78125v-51.199219zm0 0" fill="#a4c2f7"></path><path d="m349.867188 8.535156v51.199219c.003906 61.027344-45.992188 112.246094-106.667969 118.78125-60.675781-6.535156-106.667969-57.753906-106.664063-118.78125v-51.199219zm0 0" fill="#d4e1f4"></path><path d="m230.402344 256-88.851563 33.28125c-5.542969 1.5-11.464843.195312-15.867187-3.488281-4.402344-3.6875-6.722656-9.292969-6.214844-15.011719v-63.695312c-.507812-5.71875 1.8125-11.324219 6.214844-15.011719s10.324218-4.988281 15.867187-3.488281l88.851563 33.28125zm0 0" fill="#e3e7f2"></path><path d="m392.535156 207.105469v63.65625c.511719 5.726562-1.808594 11.34375-6.214844 15.035156s-10.339843 4.992187-15.886718 3.484375l-9.644532-3.671875-79.1875-29.609375v-34.132812l79.1875-29.609376 9.644532-3.671874c5.546875-1.507813 11.480468-.207032 15.886718 3.484374 4.40625 3.691407 6.726563 9.308594 6.214844 15.035157zm0 0" fill="#d4e1f4"></path><path d="m366.933594 207.105469v63.65625c.132812 5.59375-2.097656 10.984375-6.144532 14.847656l-79.1875-29.609375v-34.132812l79.1875-29.609376c4.019532 3.882813 6.246094 9.257813 6.144532 14.847657zm0 0" fill="#e3e7f2"></path><path d="m373.90625 460.800781c-.042969-17.644531-2.214844-35.21875-6.46875-52.34375-1.71875-7.296875 1.386719-14.875 7.730469-18.867187l28.929687-19.226563c5.761719-4.039062 13.238282-4.710937 19.625-1.757812 6.390625 2.953125 10.726563 9.078125 11.382813 16.085937.5625 24.054688-1.226563 55.757813-12.167969 76.109375zm0 0" fill="#d4e1f4"></path><path d="m238.933594 213.332031h34.132812c4.714844 0 8.535156 3.820313 8.535156 8.535157v34.132812c0 4.714844-3.820312 8.535156-8.535156 8.535156h-34.132812c-4.710938 0-8.53125-3.820312-8.53125-8.535156v-34.132812c0-4.714844 3.820312-8.535157 8.53125-8.535157zm0 0" fill="#e3e7f2"></path><g fill="#428dff"><path d="m264.535156 298.667969c0 4.710937-3.820312 8.53125-8.535156 8.53125-4.710938 0-8.53125-3.820313-8.53125-8.53125 0-4.714844 3.820312-8.535157 8.53125-8.535157 4.714844 0 8.535156 3.820313 8.535156 8.535157zm0 0"></path><path d="m264.535156 332.800781c0 4.710938-3.820312 8.53125-8.535156 8.53125-4.710938 0-8.53125-3.820312-8.53125-8.53125 0-4.714843 3.820312-8.535156 8.53125-8.535156 4.714844 0 8.535156 3.820313 8.535156 8.535156zm0 0"></path><path d="m264.535156 366.933594c0 4.710937-3.820312 8.535156-8.535156 8.535156-4.710938 0-8.53125-3.824219-8.53125-8.535156 0-4.710938 3.820312-8.535156 8.53125-8.535156 4.714844 0 8.535156 3.824218 8.535156 8.535156zm0 0"></path><path d="m264.535156 401.066406c0 4.714844-3.820312 8.535156-8.535156 8.535156-4.710938 0-8.53125-3.820312-8.53125-8.535156 0-4.710937 3.820312-8.53125 8.53125-8.53125 4.714844 0 8.535156 3.820313 8.535156 8.53125zm0 0"></path></g><path d="m25.601562 503.46875h25.597657c-9.414063-.03125-17.039063-7.65625-17.066407-17.070312v-180.648438c-.019531-14.476562 9.121094-27.382812 22.785157-32.171875l68.863281-24.320313 19.285156-6.824218v-35.347656c-.070312-5.59375 2.191406-10.964844 6.238282-14.828126l-9.753907-3.671874c-5.542969-1.5-11.464843-.199219-15.867187 3.488281s-6.722656 9.292969-6.214844 15.011719v35.347656l-19.285156 6.824218-68.867188 24.320313c-13.660156 4.789063-22.800781 17.695313-22.78125 32.171875v180.648438c.027344 9.414062 7.652344 17.039062 17.066406 17.070312zm0 0" fill="#fff"></path><path d="m370.433594 188.585938-9.644532 3.671874-2.386718.894532v9.566406l27.9375-10.445312c-4.164063-4.164063-10.335938-5.597657-15.90625-3.6875zm0 0" fill="#fff"></path><path d="m179.199219 151.210938v41.898437l25.601562 9.589844v-51.488281c-2.652343-2.226563-5.222656-4.558594-7.679687-6.996094-22.410156-22.402344-34.996094-52.792969-34.988282-84.480469v-51.199219h-25.597656v51.199219c-.007812 31.6875 12.578125 62.078125 34.984375 84.480469 2.457031 2.4375 5.027344 4.769531 7.679688 6.996094zm0 0" fill="#fff"></path><path d="m0 486.398438v-180.648438h17.066406v180.648438zm0 0" fill="#fff"></path><path d="m5.292969 425.984375c.480469.246094 1 .417969 1.535156.511719.5625.09375 1.132813.152344 1.707031.171875 2.257813-.035157 4.421875-.917969 6.058594-2.476563.769531-.816406 1.378906-1.769531 1.789062-2.816406 1.289063-3.179688.585938-6.824219-1.789062-9.300781-.816406-.769531-1.773438-1.378907-2.816406-1.792969-1.027344-.4375-2.128906-.667969-3.242188-.679688-2.261718.03125-4.421875.914063-6.058594 2.472657-3.300781 3.367187-3.300781 8.753906 0 12.117187l1.277344 1.023438c.476563.324218.992188.582031 1.539063.769531zm0 0" fill="#428dff"></path><path d="m483.535156 265.515625-82.46875-29.140625v-29.28125c.132813-9.203125-4.191406-17.90625-11.605468-23.363281-6.375-4.597657-14.605469-5.765625-22.007813-3.121094l-26.121094 9.777344v-35.515625c27.125-24.1875 42.644531-58.796875 42.667969-95.136719v-51.199219c0-4.714844-3.820312-8.535156-8.53125-8.535156h-238.933594c-4.714844 0-8.535156 3.820312-8.535156 8.535156v51.199219c.023438 36.339844 15.542969 70.949219 42.667969 95.136719v35.515625l-26.308594-9.847657c-7.355469-2.578124-15.511719-1.382812-21.820313 3.191407-7.414062 5.457031-11.738281 14.160156-11.605468 23.363281v29.28125l-82.464844 29.140625c-17.046875 6.035156-28.4492188 22.148437-28.46875 40.234375v78.25c0 4.714844 3.820312 8.535156 8.535156 8.535156 4.710938 0 8.53125-3.820312 8.53125-8.535156v-78.25c-.003906-10.855469 6.835938-20.53125 17.066406-24.148438l76.800782-27.101562v16.261719c-.132813 9.207031 4.191406 17.910156 11.605468 23.367187 1.425782.988282 2.953126 1.820313 4.558594 2.488282.363282.164062.722656.316406 1.097656.460937 1.550782.601563 3.164063 1.035156 4.804688 1.289063.207031 0 .402344 0 .597656.050781.953125.128906 1.910156.203125 2.867188.222656.511718 0 1.035156-.101563 1.554687-.136719s.964844-.058594 1.449219-.117187c1.71875-.199219 3.414062-.578125 5.050781-1.128907l6.152344-2.304687c15.617187 88.492187 60.101563 126.59375 84.355469 147.414063l4.152344 3.585937c2.4375 2.101563 5.25 3.726563 8.289062 4.785156v44.195313h-221.867188c-4.714843 0-8.535156-3.820313-8.535156-8.535156v-34.132813c0-4.710937-3.820312-8.53125-8.53125-8.53125-4.714844 0-8.535156 3.820313-8.535156 8.53125v34.132813c0 14.140624 11.460938 25.601562 25.601562 25.601562h460.800782c14.136718 0 25.597656-11.460938 25.597656-25.601562v-180.648438c-.019531-18.085938-11.421875-34.199219-28.464844-40.234375zm-110.277344-68.855469c2.136719-.753906 4.507813-.382812 6.3125.988282 2.910157 2.253906 4.558594 5.769531 4.429688 9.445312v63.675781c.128906 3.679688-1.519531 7.195313-4.429688 9.449219-.367187.269531-.757812.503906-1.167968.707031-.96875.484375-2.039063.726563-3.121094.699219-.628906-.019531-1.246094-.136719-1.835938-.347656l-15.933593-5.976563-67.378907-25.214843v-2.617188h25.601563c4.710937 0 8.53125-3.824219 8.53125-8.535156 0-4.710938-3.820313-8.535156-8.53125-8.535156h-25.601563v-2.617188zm-134.324218 25.207032h34.132812v34.132812h-34.132812zm-93.867188-162.132813v-42.667969h221.867188v42.667969c0 61.265625-49.667969 110.933594-110.933594 110.933594s-110.933594-49.667969-110.933594-110.933594zm110.933594 128c24.1875-.007813 47.871094-6.917969 68.265625-19.917969v28.9375l-38.039063 14.265625c-.144531-.1875-.351562-.324219-.503906-.503906-.472656-.515625-.972656-1.007813-1.503906-1.464844-.355469-.308593-.707031-.617187-1.089844-.898437-.585937-.417969-1.195312-.800782-1.828125-1.140625-.398437-.222657-.785156-.460938-1.203125-.648438-.726562-.324219-1.476562-.589843-2.242187-.796875-.386719-.109375-.742188-.261718-1.136719-.347656-1.199219-.273438-2.421875-.414062-3.652344-.417969h-34.132812c-1.230469.003907-2.453125.144531-3.652344.417969-.390625.085938-.75.238281-1.132812.347656-.769532.207032-1.519532.472656-2.246094.796875-.417969.1875-.800782.425781-1.203125.648438-.632813.339843-1.242188.722656-1.828125 1.140625-.382813.28125-.730469.589844-1.089844.898437-.53125.457031-1.03125.949219-1.503906 1.464844-.152344.179687-.355469.316406-.5.503906l-38.042969-14.265625v-28.9375c20.394531 13 44.078125 19.910156 68.265625 19.917969zm-128 19.359375c-.128906-3.675781 1.519531-7.191406 4.429688-9.445312 1.191406-.875 2.625-1.355469 4.105468-1.382813.695313 0 1.382813.121094 2.039063.351563l83.292969 31.164062v2.617188h-25.601563c-4.710937 0-8.53125 3.824218-8.53125 8.535156 0 4.710937 3.820313 8.535156 8.53125 8.535156h25.601563v2.617188l-67.355469 25.214843-15.742188 5.898438c-2.136719.75-4.507812.378906-6.316406-.988281-2.914063-2.246094-4.574219-5.761719-4.453125-9.441407zm39.074219 81.726562 58.769531-22c3.210938 3.9375 8.011719 6.226563 13.089844 6.246094h34.132812c5.078125-.019531 9.882813-2.308594 13.089844-6.246094l58.769531 22c-14.089843 84.683594-56.148437 120.949219-79.0625 140.59375l-4.265625 3.667969c-1.546875 1.363281-3.535156 2.117188-5.597656 2.117188-2.058594-.003907-4.042969-.753907-5.589844-2.117188l-4.265625-3.667969c-22.921875-19.644531-64.980469-55.910156-79.070312-140.59375zm327.859375 197.578126c0 4.714843-3.820313 8.535156-8.53125 8.535156h-221.867188v-44.195313c3.039063-1.058593 5.847656-2.683593 8.285156-4.785156l4.15625-3.585937c24.292969-20.820313 68.734376-58.921876 84.324219-147.414063l6.339844 2.375c1.625.542969 3.300781.914063 5.003906 1.101563.457031.050781.902344.082031 1.363281.109374.460938.027344 1 .128907 1.460938.128907 1.011719-.011719 2.023438-.09375 3.027344-.238281h.460937c1.648438-.269532 3.265625-.707032 4.820313-1.316407.367187-.136719.726562-.289062 1.09375-.441406 1.601562-.675781 3.128906-1.515625 4.554687-2.503906 7.441407-5.453125 11.777344-14.171875 11.640625-23.398438v-16.261719l76.800782 27.09375c10.230468 3.617188 17.070312 13.289063 17.066406 24.140626zm0 0" fill="#428dff"></path><path d="m443.734375 452.265625h-8.039063c6.335938-22.003906 9.019532-44.898437 7.945313-67.769531-.257813-9.683594-5.835937-18.433594-14.507813-22.75-9.449218-4.960938-20.847656-4.382813-29.746093 1.507812l-28.9375 19.226563c-9.382813 5.964843-13.921875 17.25-11.28125 28.050781 3.382812 13.675781 5.382812 27.660156 5.972656 41.734375h-6.738281c-4.714844 0-8.535156 3.820313-8.535156 8.535156 0 4.710938 3.820312 8.53125 8.535156 8.53125h85.332031c4.710937 0 8.53125-3.820312 8.53125-8.53125 0-4.714843-3.820313-8.535156-8.53125-8.535156zm-68.019531-45.882813c-.824219-3.789062.851562-7.679687 4.171875-9.683593l28.9375-19.226563c3.71875-2.445312 8.472656-2.671875 12.40625-.597656 3.125 1.480469 5.179687 4.558594 5.351562 8.011719 1.585938 22.84375-1.5 45.769531-9.070312 67.378906h-35.21875c-.625-15.476563-2.828125-30.851563-6.578125-45.882813zm0 0" fill="#428dff"></path><path d="m153.601562 469.332031c4.710938 0 8.53125-3.820312 8.53125-8.53125 0-4.714843-3.820312-8.535156-8.53125-8.535156h-85.335937c-4.710937 0-8.53125 3.820313-8.53125 8.535156 0 4.710938 3.820313 8.53125 8.53125 8.53125zm0 0" fill="#428dff"></path></svg> 